<?xml version="1.0" encoding="UTF-8"?>
<svg id="Layer_1" data-name="Layer 1" xmlns="http://www.w3.org/2000/svg" viewBox="0 0 768.63 180.99">
  <defs>
    <style>
      .cls-1 {
        fill: #2c72ff;
      }
    </style>
  </defs>
  <path class="cls-1" d="M8.97,24.02h78.16v17.78H8.97v-17.78ZM8.97,118.36h78.16v17.78H8.97v-17.78ZM37.48,24.02h21.14v112.12h-21.14V24.02Z"/>
  <path class="cls-1" d="M121.33,131.81c-6.35-4.8-11.29-11.64-14.82-20.5-3.52-8.86-5.29-19.17-5.29-30.91s1.84-21.94,5.53-30.91c3.68-8.97,8.94-15.94,15.78-20.9,6.83-4.96,14.79-7.45,23.86-7.45,7.47,0,14.07,1.52,19.78,4.56,5.71,3.04,10.22,7.37,13.53,12.97,3.31,5.61,5.29,12.31,5.93,20.1h-21.14c-.75-6.83-2.67-11.85-5.77-15.06-3.1-3.2-7.1-4.81-12.01-4.81s-9.53,1.74-13.21,5.21c-3.68,3.47-6.46,8.33-8.33,14.58-1.87,6.25-2.8,13.48-2.8,21.7s.91,15.08,2.72,21.22c1.81,6.14,4.54,10.95,8.17,14.42,3.63,3.47,8.11,5.21,13.45,5.21,3.63,0,6.89-.96,9.77-2.88s5.15-4.75,6.81-8.49c1.65-3.74,2.48-8.27,2.48-13.61v-11.37l9.29,9.29h-29.95v-17.78h40.84v59.74h-18.9v-4.97c0-1.6.05-3.26.16-4.96.1-1.71.32-3.26.64-4.64-2.35,5.55-5.66,9.85-9.93,12.89-4.27,3.04-9.18,4.56-14.74,4.56-8.22,0-15.51-2.4-21.86-7.21Z"/>
  <path class="cls-1" d="M200.05,24.02h29.47l33,91.13c-.22-2.78-.35-5.79-.4-9.05-.06-3.26-.08-6.43-.08-9.53V24.02h18.42v112.12h-29.47l-33.15-91.29c.32,2.67.5,5.55.56,8.65.05,3.1.08,6.14.08,9.13v73.52h-18.42V24.02Z"/>
  <path class="cls-1" d="M312.24,131.33c-6.67-5.12-11.69-12.12-15.06-20.98-3.36-8.86-5.05-18.95-5.05-30.27s1.65-21.43,4.97-30.35c3.31-8.91,8.27-15.91,14.9-20.98,6.62-5.07,14.68-7.61,24.18-7.61s17.56,2.54,24.19,7.61c6.62,5.07,11.58,12.07,14.9,20.98,3.31,8.92,4.96,19.04,4.96,30.35s-1.68,21.41-5.04,30.27c-3.36,8.86-8.38,15.86-15.06,20.98-6.67,5.13-14.66,7.69-23.95,7.69s-17.27-2.56-23.94-7.69ZM348.28,115.96c3.36-3.52,5.93-8.38,7.69-14.58,1.76-6.19,2.64-13.29,2.64-21.3s-.83-15.4-2.48-21.54c-1.66-6.14-4.14-10.94-7.45-14.42-3.31-3.47-7.48-5.21-12.49-5.21s-9.18,1.74-12.49,5.21c-3.31,3.47-5.79,8.28-7.45,14.42-1.66,6.14-2.48,13.32-2.48,21.54s.88,15.11,2.64,21.3c1.76,6.2,4.32,11.05,7.69,14.58,3.36,3.52,7.39,5.29,12.09,5.29s8.73-1.76,12.09-5.29Z"/>
  <path class="cls-1" d="M393.2,24.02h45.33c10.89,0,19.62,2.54,26.19,7.61,6.57,5.07,9.85,12.36,9.85,21.86,0,7.15-2.06,13.05-6.17,17.7-4.11,4.65-9.16,7.88-15.14,9.69,6.41,1.07,11.26,3.84,14.58,8.33,3.31,4.48,4.96,10.36,4.96,17.62v29.31h-20.98v-27.39c0-6.62-1.39-11.29-4.17-14.01-2.78-2.72-7.58-4.08-14.42-4.08h-19.06v45.49h-20.98V24.02ZM444.78,70.95c2.78-1.17,4.83-2.88,6.17-5.12,1.33-2.24,2-5.07,2-8.49,0-5.12-1.55-8.99-4.65-11.61-3.1-2.62-7.69-3.92-13.77-3.92h-20.34v30.91h20.34c4.06,0,7.47-.59,10.25-1.76Z"/>
  <path class="cls-1" d="M515.09,24.02h26.75l33.63,112.12h-22.74l-21.14-80.72c-.32-1.17-.54-2.03-.64-2.56-.11-.53-.32-1.39-.64-2.56-.64-2.56-1.39-6.19-2.24-10.89-.21,1.82-.51,3.6-.88,5.37-.38,1.76-.78,3.55-1.2,5.37l-1.44,5.29-21.62,80.72h-21.3l33.47-112.12ZM500.67,87.77h55.1v17.78h-55.1v-17.78Z"/>
  <path class="cls-1" d="M584.44,24.02h29.47l33,91.13c-.22-2.78-.35-5.79-.4-9.05-.06-3.26-.08-6.43-.08-9.53V24.02h18.42v112.12h-29.47l-33.15-91.29c.32,2.67.5,5.55.56,8.65.05,3.1.08,6.14.08,9.13v73.52h-18.42V24.02Z"/>
  <path class="cls-1" d="M710.33,41.8h-35.08v-17.78h90.97v17.78h-35.08v94.34h-20.82V41.8Z"/>
</svg>