<?xml version="1.0" encoding="UTF-8"?>
<svg id="Layer_1" data-name="Layer 1" xmlns="http://www.w3.org/2000/svg" xmlns:xlink="http://www.w3.org/1999/xlink" viewBox="0 0 743.5 370.42">
  <defs>
    <style>
      .cls-1 {
        fill: url(#linear-gradient-8);
      }

      .cls-2 {
        fill: url(#linear-gradient-7);
      }

      .cls-3 {
        fill: url(#linear-gradient-5);
      }

      .cls-4 {
        fill: url(#linear-gradient-6);
      }

      .cls-5 {
        fill: url(#linear-gradient-4);
      }

      .cls-6 {
        fill: url(#linear-gradient-3);
      }

      .cls-7 {
        fill: url(#linear-gradient-2);
      }

      .cls-8 {
        fill: url(#linear-gradient);
      }

      .cls-9 {
        opacity: .2;
      }
    </style>
    <linearGradient id="linear-gradient" x1="25.64" y1="0" x2="25.64" y2="370.42" gradientUnits="userSpaceOnUse">
      <stop offset="0" stop-color="#fff"/>
      <stop offset=".05" stop-color="#d6e4ff"/>
      <stop offset=".12" stop-color="#aec9ff"/>
      <stop offset=".19" stop-color="#8bb1ff"/>
      <stop offset=".27" stop-color="#6d9dff"/>
      <stop offset=".35" stop-color="#558dff"/>
      <stop offset=".45" stop-color="#4281ff"/>
      <stop offset=".56" stop-color="#3578ff"/>
      <stop offset=".7" stop-color="#2e73ff"/>
      <stop offset="1" stop-color="#2c72ff"/>
    </linearGradient>
    <linearGradient id="linear-gradient-2" x1="105.76" x2="105.76" xlink:href="#linear-gradient"/>
    <linearGradient id="linear-gradient-3" x1="205.1" x2="205.1" xlink:href="#linear-gradient"/>
    <linearGradient id="linear-gradient-4" x1="307.65" x2="307.65" xlink:href="#linear-gradient"/>
    <linearGradient id="linear-gradient-5" x1="407" x2="407" xlink:href="#linear-gradient"/>
    <linearGradient id="linear-gradient-6" x1="503.14" x2="503.14" xlink:href="#linear-gradient"/>
    <linearGradient id="linear-gradient-7" x1="602.49" x2="602.49" xlink:href="#linear-gradient"/>
    <linearGradient id="linear-gradient-8" x1="698.63" x2="698.63" xlink:href="#linear-gradient"/>
  </defs>
  <g class="cls-9">
    <path class="cls-8" d="M51.28,343.96v26.46H0v-26.46h12.82V26.46H0V0h51.28v26.46h-12.82v317.5h12.82Z"/>
    <path class="cls-7" d="M121.78,343.96v26.46h-38.46v-26.46h-12.82v-26.46h-6.41v-52.92h-6.41V105.83h6.41v-52.92h6.41v-26.46h12.82V0h38.46v26.46h6.41V0h6.41v132.29h-6.41v-52.92h-6.41v-26.46h-6.41v-26.46h-19.23v26.46h-6.41v26.46h-6.41v52.92h-6.41v105.83h6.41v52.92h6.41v26.46h6.41v26.46h19.23v-26.46h12.82v-26.46h-6.41v-79.37h-12.82v-26.46h44.87v26.46h-12.82v158.75h-6.41v-26.46h-12.82Z"/>
    <path class="cls-6" d="M185.87,343.96v26.46h-32.05v-26.46h12.82V52.92h-6.41V0h32.05v52.92h6.41v26.46h6.41v26.46h6.41v26.46h6.41v26.46h6.41v26.46h6.41v52.92h6.41V52.92h-6.41v-26.46h-6.41V0h32.05v26.46h-12.82v343.96h-6.41v-26.46h-6.41v-26.46h-6.41v-26.46h-6.41v-26.46h-6.41v-26.46h-6.41v-26.46h-6.41v-52.92h-6.41v-26.46h-6.41v-26.46h-6.41v238.13h6.41Z"/>
    <path class="cls-5" d="M326.88,343.96v26.46h-38.46v-26.46h-12.82v-26.46h-6.41v-26.46h-6.41V105.83h6.41v-52.92h6.41v-26.46h12.82V0h38.46v26.46h12.82v26.46h6.41v26.46h6.41v185.21h-6.41v52.92h-6.41v26.46h-12.82ZM294.84,343.96h25.64v-26.46h6.41v-52.92h6.41v-132.29h-6.41V52.92h-6.41v-26.46h-25.64v26.46h-6.41v52.92h-6.41v132.29h6.41v79.38h6.41v26.46Z"/>
    <path class="cls-3" d="M403.8,343.96v26.46h-44.87v-26.46h12.82V26.46h-12.82V0h70.51v26.46h6.41v26.46h6.41v79.37h-6.41v26.46h-6.41v52.92h6.41v26.46h6.41v79.38h6.41v26.46h6.41v26.46h-25.64v-26.46h-6.41v-52.92h-6.41v-79.37h-6.41v-26.46h-25.64v26.46h6.41v132.29h12.82ZM390.98,158.75h25.64v-26.46h6.41v-52.92h-6.41V26.46h-25.64v132.29Z"/>
    <path class="cls-4" d="M512.76,264.58h-32.05v26.46h-6.41v52.92h6.41v26.46h-25.64v-26.46h6.41v-26.46h6.41v-52.92h6.41v-52.92h6.41v-52.92h6.41v-52.92h6.41V26.46h6.41V0h6.41v26.46h6.41v52.92h6.41v52.92h6.41v52.92h6.41v79.37h6.41v52.92h6.41v26.46h6.41v26.46h-38.46v-26.46h6.41v-26.46h-6.41v-52.92ZM480.71,238.13h25.64v-52.92h-6.41v-79.38h-6.41v52.92h-6.41v52.92h-6.41v26.46Z"/>
    <path class="cls-2" d="M583.26,343.96v26.46h-32.05v-26.46h12.82V52.92h-6.41V0h32.05v52.92h6.41v26.46h6.41v26.46h6.41v26.46h6.41v26.46h6.41v26.46h6.41v52.92h6.41V52.92h-6.41v-26.46h-6.41V0h32.05v26.46h-12.82v343.96h-6.41v-26.46h-6.41v-26.46h-6.41v-26.46h-6.41v-26.46h-6.41v-26.46h-6.41v-26.46h-6.41v-52.92h-6.41v-26.46h-6.41v-26.46h-6.41v238.13h6.41Z"/>
    <path class="cls-1" d="M653.77,0h89.73v132.29h-6.41v-52.92h-6.41V26.46h-19.23v317.5h12.82v26.46h-51.28v-26.46h12.82V26.46h-19.23v52.92h-6.41v52.92h-6.41V0Z"/>
  </g>
</svg>