<?xml version="1.0" encoding="UTF-8"?>
<svg id="Layer_1" data-name="Layer 1" xmlns="http://www.w3.org/2000/svg" viewBox="0 0 1164.2 1142.81">
  <defs>
    <style>
      .cls-1 {
        fill: #474747;
      }

      .cls-2 {
        fill: #2c72ff;
      }

      .cls-3 {
        fill: #fff;
      }
    </style>
  </defs>
  <rect class="cls-3" x="-25.12" y="-30.19" width="1219" height="1209"/>
  <path class="cls-2" d="M885.48,464.52v92.89h-46.44v-23.22h-23.23v-116.12h23.23v-23.23h23.22v-23.22h23.22v-23.22h23.23v-23.23h23.22v-23.22h23.23v-46.45h23.22v-69.67h23.23v-46.45h-23.23v-46.45h-23.22v-23.23h-23.23v-23.22h-139.34v23.22h-46.45v46.45h-23.22v46.45h46.44v46.45h-23.22v46.45h-46.45v23.22h-23.22v-23.22h-46.45v-23.23h-23.23v-116.12h23.23v-23.22h23.22v-46.45h46.45v-23.22h46.45V0h255.48v23.23h69.67v23.22h23.22v23.22h23.23v23.23h23.22v69.67h23.23v46.45h-23.23v69.67h-23.22v23.23h-23.23v46.45h-46.45v23.22h-23.22v23.22h-46.45v23.23h-46.45v23.22h-23.22v23.23h-23.23ZM769.35,650.31h185.81v162.58h-185.81v-162.58Z"/>
  <g>
    <path class="cls-2" d="M.9,692.52h2.47l1.08,11.83c.03.24.06.48.07.73.02.25.02.5.02.76.03.24.06.48.07.72.03-.27.06-.54.1-.79.05-.32.09-.56.12-.72.03-.16.07-.39.12-.7l1.25-7.97h2.59l1.25,7.97c.13.83.23,1.56.31,2.18.03-.22.06-.45.07-.67.02-.29.03-.54.05-.74.02-.21.03-.46.05-.77l1.06-11.83h2.4l-2.06,16.8h-2.95l-1.25-7.8c-.03-.14-.05-.26-.05-.36-.05-.26-.09-.51-.13-.77-.04-.26-.08-.52-.11-.79-.03.22-.06.42-.08.59-.02.17-.05.36-.08.59-.03.16-.05.29-.06.38,0,.1-.03.22-.06.36l-1.27,7.8h-2.88l-2.09-16.8Z"/>
    <path class="cls-2" d="M15.99,707.31h12.55v2.02h-12.55v-2.02ZM16.98,697.68h6.41v2.02h-6.41v-2.02ZM20.96,692.79h2.98v3.02h-2.98v-3.02ZM21.42,697.68h2.47v11.64h-2.47v-11.64Z"/>
    <path class="cls-2" d="M30.27,707.31h12.77v2.02h-12.77v-2.02ZM31.26,692.52h5.81v2.02h-5.81v-2.02ZM35.82,692.52h2.5v16.8h-2.5v-16.8Z"/>
    <path class="cls-2" d="M44.67,707.31h12.77v2.02h-12.77v-2.02ZM45.66,692.52h5.81v2.02h-5.81v-2.02ZM50.22,692.52h2.5v16.8h-2.5v-16.8Z"/>
    <path class="cls-2" d="M77.72,692.52h3.38l5.21,16.8h-2.83l-3.55-12.43c-.05-.16-.08-.28-.1-.35-.02-.07-.05-.2-.1-.37-.11-.42-.23-.91-.36-1.49-.05.26-.1.5-.17.74l-.19.72-.22.74-3.58,12.43h-2.69l5.18-16.8ZM75.47,702.29h7.9v2.23h-7.9v-2.23Z"/>
    <path class="cls-2" d="M87.87,707.31h12.77v2.02h-12.77v-2.02ZM88.86,692.52h5.81v2.02h-5.81v-2.02ZM93.42,692.52h2.5v16.8h-2.5v-16.8Z"/>
    <path class="cls-2" d="M102.27,707.31h12.77v2.02h-12.77v-2.02ZM103.26,692.52h5.81v2.02h-5.81v-2.02ZM107.82,692.52h2.5v16.8h-2.5v-16.8Z"/>
    <path class="cls-2" d="M120.08,709.18c-.77-.35-1.37-.85-1.8-1.5-.43-.65-.66-1.4-.7-2.27h2.5c.03.75.28,1.34.74,1.78.46.43,1.13.65,1.99.65.72,0,1.3-.16,1.74-.47.44-.31.66-.72.66-1.24,0-.43-.16-.78-.47-1.03s-.8-.45-1.48-.58l-1.61-.31c-1.17-.22-2.08-.62-2.72-1.2-.65-.58-.97-1.32-.97-2.23,0-.66.2-1.25.6-1.78.4-.53.95-.94,1.66-1.25.7-.3,1.5-.46,2.4-.46.99,0,1.85.16,2.57.48.72.32,1.28.77,1.67,1.34.39.58.61,1.26.66,2.06h-2.47c-.06-.62-.32-1.11-.76-1.46-.44-.35-1.02-.53-1.74-.53-.64,0-1.15.13-1.52.4-.38.26-.56.62-.56,1.07,0,.42.15.74.44.96.3.22.8.41,1.5.55l1.61.31c1.17.22,2.07.62,2.71,1.18.64.56.96,1.32.96,2.28,0,.7-.2,1.34-.6,1.92-.4.58-.96,1.03-1.69,1.36-.73.33-1.58.49-2.56.49-1.07,0-1.99-.18-2.76-.53Z"/>
    <path class="cls-2" d="M137.5,709.01c-.85-.35-1.5-.9-1.97-1.64-.46-.74-.7-1.72-.7-2.92v-4.75h-4.27v-2.02h4.27v-4.01h2.5v4.01h5.04v2.02h-5.04v4.49c0,.78.13,1.41.38,1.87.26.46.65.8,1.18,1,.53.2,1.23.3,2.11.3.48,0,1.01-.04,1.58-.12v2.06c-.29.08-.61.14-.96.18-.35.04-.7.06-1.06.06-1.2,0-2.22-.18-3.07-.53Z"/>
    <path class="cls-2" d="M148.68,708.98c-.87-.49-1.55-1.2-2.03-2.12s-.72-2.06-.72-3.38c0-1.18.25-2.24.74-3.18.5-.94,1.17-1.67,2.03-2.2.86-.53,1.82-.79,2.89-.79,1.17,0,2.16.26,2.99.77.82.51,1.45,1.24,1.88,2.17.43.94.65,2.03.65,3.28v.53h-8.64c0,.75.14,1.41.43,1.97.29.56.68.99,1.16,1.3.49.3,1.04.46,1.67.46.74,0,1.35-.18,1.85-.53s.81-.89.94-1.61h2.5c-.08.77-.34,1.46-.78,2.08-.44.62-1.04,1.1-1.81,1.46-.77.36-1.66.54-2.69.54-1.17,0-2.19-.24-3.06-.73ZM153.73,700.04c-.51-.56-1.22-.84-2.14-.84-.86,0-1.58.29-2.14.88s-.88,1.32-.96,2.2h6.02c-.02-.93-.28-1.67-.79-2.23Z"/>
    <path class="cls-2" d="M166.3,709.01c-.85-.35-1.5-.9-1.97-1.64-.46-.74-.7-1.72-.7-2.92v-4.75h-4.27v-2.02h4.27v-4.01h2.5v4.01h5.04v2.02h-5.04v4.49c0,.78.13,1.41.38,1.87.26.46.65.8,1.18,1,.53.2,1.23.3,2.11.3.48,0,1.01-.04,1.58-.12v2.06c-.29.08-.61.14-.96.18-.35.04-.7.06-1.06.06-1.2,0-2.22-.18-3.07-.53Z"/>
    <path class="cls-2" d="M180.7,709.01c-.85-.35-1.5-.9-1.97-1.64-.46-.74-.7-1.72-.7-2.92v-4.75h-4.27v-2.02h4.27v-4.01h2.5v4.01h5.04v2.02h-5.04v4.49c0,.78.13,1.41.38,1.87.26.46.65.8,1.18,1,.53.2,1.23.3,2.11.3.48,0,1.01-.04,1.58-.12v2.06c-.29.08-.61.14-.96.18-.35.04-.7.06-1.06.06-1.2,0-2.22-.18-3.07-.53Z"/>
    <path class="cls-2" d="M191.88,708.98c-.87-.49-1.55-1.2-2.03-2.12s-.72-2.06-.72-3.38c0-1.18.25-2.24.74-3.18.5-.94,1.17-1.67,2.03-2.2.86-.53,1.82-.79,2.89-.79,1.17,0,2.16.26,2.99.77.82.51,1.45,1.24,1.88,2.17.43.94.65,2.03.65,3.28v.53h-8.64c0,.75.14,1.41.43,1.97.29.56.68.99,1.16,1.3.49.3,1.04.46,1.67.46.74,0,1.35-.18,1.85-.53s.81-.89.94-1.61h2.5c-.08.77-.34,1.46-.78,2.08-.44.62-1.04,1.1-1.81,1.46-.77.36-1.66.54-2.69.54-1.17,0-2.19-.24-3.06-.73ZM196.93,700.04c-.51-.56-1.22-.84-2.14-.84-.86,0-1.58.29-2.14.88s-.88,1.32-.96,2.2h6.02c-.02-.93-.28-1.67-.79-2.23Z"/>
    <path class="cls-2" d="M205.38,697.68h2.5v.94c0,.59-.02,1.14-.05,1.63.38-.83.99-1.52,1.81-2.08.82-.55,1.9-.83,3.23-.83.42,0,.86.03,1.34.1v2.4c-.53-.06-1.02-.1-1.49-.1-1.02,0-1.9.16-2.63.47-.73.31-1.28.78-1.66,1.4s-.56,1.4-.56,2.33v5.38h-2.5v-11.64Z"/>
  </g>
  <g>
    <path class="cls-2" d="M4.12,750.69h2.54l3.91,12.6h-2.12l-2.66-9.32c-.04-.12-.06-.21-.07-.26-.01-.05-.04-.15-.07-.28-.08-.31-.17-.68-.27-1.12-.04.19-.08.38-.13.56-.05.18-.1.36-.14.54l-.16.56-2.68,9.32H.23l3.89-12.6ZM2.43,758.02h5.92v1.67H2.43v-1.67Z"/>
    <path class="cls-2" d="M14.2,763.04c-.66-.36-1.17-.89-1.54-1.59-.37-.7-.55-1.54-.55-2.53,0-.92.19-1.74.58-2.44.39-.7.92-1.24,1.6-1.63.68-.38,1.43-.58,2.26-.58.76,0,1.42.14,2,.42.58.28,1.03.68,1.37,1.2.34.52.54,1.11.61,1.78h-1.91c-.06-.56-.27-1.03-.63-1.39s-.85-.54-1.46-.54c-.48,0-.91.13-1.3.4-.38.26-.68.64-.9,1.12-.22.48-.32,1.04-.32,1.67s.1,1.18.31,1.67c.21.49.5.86.88,1.12.38.26.82.4,1.32.4.64,0,1.14-.18,1.52-.53.38-.35.6-.83.68-1.43h1.87c-.08.7-.29,1.3-.63,1.82-.34.52-.8.91-1.4,1.19s-1.29.41-2.1.41c-.86,0-1.63-.18-2.29-.54Z"/>
    <path class="cls-2" d="M23.62,750.69h1.87v7.45c.2-.25.42-.49.65-.72l2.75-2.86h2.39l-5.8,5.8v2.93h-1.87v-12.6ZM26.14,759.3l1.3-1.19,4.25,5.18h-2.47l-3.08-4Z"/>
    <path class="cls-2" d="M33.97,754.56h1.85v.73c0,.07,0,.14-.02.22,0,.07,0,.16-.02.27.26-.44.63-.81,1.11-1.09.47-.28,1.04-.42,1.7-.42s1.25.15,1.74.44c.49.29.86.71,1.12,1.25.26.54.39,1.17.39,1.89v5.44h-1.89v-5.18c0-.76-.15-1.34-.45-1.75-.3-.41-.77-.61-1.42-.61-.44,0-.84.11-1.18.32s-.6.51-.78.88c-.18.37-.27.77-.27,1.21v5.13h-1.87v-8.73Z"/>
    <path class="cls-2" d="M46.3,763.02c-.67-.38-1.18-.92-1.55-1.62-.37-.7-.55-1.52-.55-2.46s.19-1.72.56-2.43c.37-.71.89-1.26,1.55-1.65.66-.39,1.42-.59,2.27-.59s1.59.2,2.26.59c.67.39,1.19.94,1.57,1.65.38.71.57,1.52.57,2.43s-.19,1.75-.57,2.46c-.38.7-.9,1.24-1.57,1.62-.67.38-1.42.57-2.26.57s-1.61-.19-2.28-.57ZM49.9,761.74c.37-.26.66-.63.86-1.11.2-.48.31-1.04.31-1.69,0-.98-.23-1.76-.68-2.33-.46-.57-1.06-.85-1.8-.85-.49,0-.92.13-1.3.39-.37.26-.66.63-.86,1.11-.2.48-.31,1.04-.31,1.69s.1,1.21.3,1.69c.2.48.48.85.85,1.11.37.26.81.39,1.31.39s.94-.13,1.31-.39Z"/>
    <path class="cls-2" d="M54.49,754.56h1.78l.86,6.05c.02.2.05.47.09.79.07-.26.13-.53.18-.79l1.06-3.98h1.87l1.01,3.98c.01.07.02.14.04.2.05.14.1.34.14.59.05-.23.08-.4.09-.5.01-.1.02-.19.04-.29l.92-6.05h1.69l-1.73,8.73h-1.91l-1.12-4.32c-.05-.16-.08-.29-.09-.41-.02-.1-.05-.2-.07-.31-.02.12-.05.23-.07.32-.02.1-.04.17-.05.21,0,.04-.02.11-.04.19l-1.13,4.32h-1.89l-1.67-8.73Z"/>
    <path class="cls-2" d="M65.7,761.78h9.58v1.51h-9.58v-1.51ZM66.44,750.69h4.36v1.51h-4.36v-1.51ZM69.86,750.69h1.87v12.6h-1.87v-12.6Z"/>
    <path class="cls-2" d="M78.9,763.03c-.65-.37-1.16-.9-1.52-1.59-.36-.7-.54-1.54-.54-2.54,0-.89.19-1.68.56-2.38.37-.7.88-1.25,1.52-1.65.64-.4,1.36-.59,2.17-.59.88,0,1.62.19,2.24.58.62.38,1.09.93,1.41,1.63.32.7.49,1.52.49,2.46v.4h-6.48c0,.56.11,1.06.32,1.48.22.42.51.74.87.97.37.23.78.34,1.25.34.55,0,1.01-.13,1.39-.4.37-.26.61-.67.7-1.21h1.87c-.06.58-.26,1.1-.59,1.56-.33.46-.78.83-1.36,1.1-.58.27-1.25.41-2.02.41-.88,0-1.64-.18-2.29-.55ZM82.69,756.33c-.38-.42-.92-.63-1.6-.63-.65,0-1.18.22-1.6.66-.42.44-.66.99-.72,1.65h4.52c-.01-.7-.21-1.25-.59-1.67Z"/>
    <path class="cls-2" d="M89.07,763.05c-.61-.35-1.08-.88-1.43-1.58s-.52-1.54-.52-2.51.18-1.77.54-2.47c.36-.7.84-1.24,1.45-1.63.61-.38,1.29-.58,2.06-.58.66,0,1.22.14,1.69.43.47.29.82.65,1.06,1.08-.02-.24-.04-.5-.04-.79v-4.3h1.85v12.6h-1.85v-.43c0-.3.01-.56.04-.77-.23.42-.58.77-1.06,1.06-.48.29-1.05.43-1.71.43-.78,0-1.47-.18-2.08-.53ZM92.8,761.73c.38-.26.67-.64.88-1.12.21-.49.31-1.04.31-1.67,0-.97-.23-1.75-.68-2.32-.46-.58-1.06-.86-1.8-.86-.47,0-.89.14-1.27.41s-.67.65-.88,1.12c-.21.48-.32,1.03-.32,1.66s.1,1.19.32,1.67c.21.48.5.85.88,1.12.38.26.81.4,1.29.4s.89-.13,1.27-.4Z"/>
    <path class="cls-2" d="M100.43,766.89c-.59-.28-1.05-.66-1.36-1.15-.31-.49-.47-1.07-.47-1.73h1.87c.01.56.2,1.01.57,1.33.37.32.87.49,1.5.49.73,0,1.31-.2,1.74-.59.43-.4.64-.98.64-1.76v-1.01c0-.3.01-.58.04-.83-.25.44-.62.8-1.11,1.06-.49.26-1.05.4-1.68.4-.78,0-1.47-.18-2.06-.54-.59-.36-1.06-.88-1.39-1.55-.33-.67-.49-1.45-.49-2.34s.18-1.64.53-2.3c.35-.66.83-1.17,1.43-1.54.6-.37,1.25-.55,1.96-.55s1.27.14,1.72.41c.45.28.81.64,1.09,1.1,0-.08,0-.15,0-.19,0-.04,0-.1,0-.17-.01-.12-.02-.26-.02-.43v-.43h1.87v8.37c0,1.45-.37,2.54-1.12,3.28-.74.73-1.8,1.1-3.17,1.1-.79,0-1.49-.14-2.08-.41ZM103.87,761.25c.37-.25.65-.59.86-1.04.21-.45.31-.96.31-1.54s-.1-1.05-.31-1.49c-.2-.44-.49-.79-.87-1.04-.38-.25-.8-.38-1.27-.38s-.89.12-1.27.37c-.38.25-.67.59-.88,1.04-.21.44-.31.95-.31,1.51s.1,1.09.31,1.54c.21.45.5.8.87,1.04.37.25.8.37,1.28.37s.9-.12,1.27-.37Z"/>
    <path class="cls-2" d="M111.3,763.03c-.65-.37-1.16-.9-1.52-1.59-.36-.7-.54-1.54-.54-2.54,0-.89.19-1.68.56-2.38.37-.7.88-1.25,1.52-1.65.64-.4,1.36-.59,2.17-.59.88,0,1.62.19,2.24.58.62.38,1.09.93,1.41,1.63.32.7.49,1.52.49,2.46v.4h-6.48c0,.56.11,1.06.32,1.48.22.42.51.74.87.97.37.23.78.34,1.25.34.55,0,1.01-.13,1.39-.4.37-.26.61-.67.7-1.21h1.87c-.06.58-.26,1.1-.58,1.56-.33.46-.78.83-1.36,1.1s-1.25.41-2.02.41c-.88,0-1.64-.18-2.3-.55ZM115.09,756.33c-.38-.42-.92-.63-1.6-.63-.65,0-1.18.22-1.6.66-.42.44-.66.99-.72,1.65h4.52c-.01-.7-.21-1.25-.59-1.67Z"/>
    <path class="cls-2" d="M119.55,754.56h1.67v.61c0,.23-.01.43-.04.61.17-.48.4-.85.71-1.12.31-.26.68-.4,1.12-.4.41,0,.76.13,1.07.39.31.26.52.65.66,1.18.2-.49.47-.88.8-1.15.33-.28.75-.41,1.27-.41.42,0,.79.12,1.11.35s.56.57.72,1.01c.16.44.24.96.24,1.57v6.08h-1.66v-5.8c0-.56-.08-1-.23-1.3-.15-.3-.39-.45-.73-.45-.31,0-.56.09-.74.28-.18.19-.31.44-.39.75-.08.31-.12.67-.12,1.08v5.44h-1.64v-5.76c0-.56-.08-1-.23-1.31-.16-.31-.41-.47-.76-.47-.3,0-.53.09-.7.28-.17.19-.29.44-.37.76-.08.32-.12.7-.12,1.12v5.38h-1.67v-8.73Z"/>
    <path class="cls-2" d="M132.9,763.03c-.65-.37-1.16-.9-1.52-1.59-.36-.7-.54-1.54-.54-2.54,0-.89.19-1.68.56-2.38.37-.7.88-1.25,1.52-1.65.64-.4,1.36-.59,2.17-.59.88,0,1.62.19,2.24.58.62.38,1.09.93,1.41,1.63.32.7.49,1.52.49,2.46v.4h-6.48c0,.56.11,1.06.32,1.48.22.42.51.74.87.97.37.23.78.34,1.25.34.55,0,1.01-.13,1.39-.4.37-.26.61-.67.7-1.21h1.87c-.06.58-.26,1.1-.58,1.56-.33.46-.78.83-1.36,1.1-.58.27-1.25.41-2.02.41-.88,0-1.64-.18-2.3-.55ZM136.69,756.33c-.38-.42-.92-.63-1.6-.63-.65,0-1.18.22-1.6.66-.42.44-.66.99-.72,1.65h4.52c-.01-.7-.21-1.25-.59-1.67Z"/>
    <path class="cls-2" d="M141.95,754.56h1.85v.73c0,.07,0,.14-.02.22,0,.07,0,.16-.02.27.26-.44.63-.81,1.11-1.09.47-.28,1.04-.42,1.7-.42s1.25.15,1.74.44c.49.29.86.71,1.12,1.25.26.54.39,1.17.39,1.89v5.44h-1.89v-5.18c0-.76-.15-1.34-.45-1.75s-.77-.61-1.42-.61c-.44,0-.84.11-1.18.32s-.6.51-.78.88c-.18.37-.27.77-.27,1.21v5.13h-1.87v-8.73Z"/>
    <path class="cls-2" d="M156.9,763.06c-.64-.26-1.13-.67-1.48-1.23-.35-.56-.52-1.29-.52-2.19v-3.56h-3.2v-1.51h3.2v-3.01h1.87v3.01h3.78v1.51h-3.78v3.37c0,.59.1,1.06.29,1.4.19.35.49.6.88.75.4.15.92.22,1.58.22.36,0,.76-.03,1.19-.09v1.55c-.22.06-.46.1-.72.14-.26.03-.53.05-.79.05-.9,0-1.67-.13-2.3-.4Z"/>
    <path class="cls-1" d="M4.41,774.37H.38v-1.67h10.04v1.67h-4.03v10.93h-1.98v-10.93Z"/>
    <path class="cls-1" d="M12.62,772.69h1.85v4.37c0,.12,0,.22-.02.31,0,.07,0,.14,0,.2,0,.06,0,.13,0,.22.26-.44.63-.81,1.1-1.09.47-.28,1.03-.42,1.69-.42s1.27.15,1.76.44c.49.29.85.71,1.11,1.24.25.53.38,1.17.38,1.9v5.44h-1.87v-5.18c0-.76-.15-1.34-.45-1.75-.3-.41-.77-.61-1.4-.61-.47,0-.87.11-1.21.32-.34.22-.6.51-.78.88-.18.37-.27.77-.27,1.21v5.13h-1.85v-12.6Z"/>
    <path class="cls-1" d="M24.62,785.26c-.47-.22-.84-.52-1.11-.93-.27-.4-.41-.88-.41-1.43,0-.86.29-1.51.86-1.93.58-.43,1.36-.71,2.34-.86l1.71-.22c.34-.05.57-.15.71-.3.14-.15.21-.34.21-.58,0-.41-.15-.73-.45-.96-.3-.23-.72-.35-1.26-.35-.61,0-1.09.15-1.44.44-.35.29-.53.69-.56,1.2h-1.89c.04-.55.21-1.06.53-1.54.32-.47.76-.85,1.31-1.12.56-.27,1.21-.41,1.95-.41.84,0,1.53.14,2.07.41.54.28.94.67,1.21,1.19.26.52.4,1.15.4,1.91v5.51h-1.78v-.4c0-.13,0-.29.02-.47.01-.11.02-.22.04-.32-.23.46-.59.82-1.1,1.08-.5.26-1.11.4-1.82.4-.56,0-1.08-.11-1.55-.32ZM27.8,783.9c.37-.19.65-.45.86-.78.21-.34.31-.72.31-1.15v-1.13c-.06.07-.17.14-.34.2-.17.06-.39.12-.67.18l-1.12.2c-.59.11-1.04.27-1.36.49-.32.22-.48.54-.48.96s.14.73.43.96c.29.23.66.35,1.12.35s.87-.09,1.23-.28Z"/>
    <path class="cls-1" d="M33.98,776.56h1.85v.73c0,.07,0,.14-.02.22,0,.07,0,.16-.02.27.26-.44.63-.81,1.11-1.09.47-.28,1.04-.42,1.7-.42s1.25.15,1.74.44c.49.29.86.71,1.12,1.25.26.54.39,1.17.39,1.89v5.44h-1.89v-5.18c0-.76-.15-1.34-.45-1.75s-.77-.61-1.42-.61c-.44,0-.84.11-1.18.32s-.6.51-.78.88c-.18.37-.27.77-.27,1.21v5.13h-1.87v-8.73Z"/>
    <path class="cls-1" d="M45.23,772.69h1.87v7.45c.2-.25.42-.49.65-.72l2.75-2.86h2.39l-5.8,5.8v2.93h-1.87v-12.6ZM47.75,781.3l1.3-1.19,4.25,5.18h-2.47l-3.08-4Z"/>
    <path class="cls-1" d="M57.49,785.19c-.58-.26-1.03-.64-1.35-1.12-.32-.49-.5-1.05-.52-1.7h1.87c.02.56.21,1.01.56,1.33.35.32.85.49,1.49.49.54,0,.97-.12,1.31-.35.33-.23.49-.54.49-.93,0-.32-.12-.58-.35-.77-.23-.19-.6-.34-1.11-.43l-1.21-.23c-.88-.17-1.56-.47-2.04-.9s-.73-.99-.73-1.67c0-.49.15-.94.45-1.33.3-.4.71-.71,1.24-.94.53-.23,1.13-.34,1.8-.34.74,0,1.39.12,1.93.36.54.24.96.58,1.25,1.01.29.43.46.95.49,1.55h-1.85c-.05-.47-.24-.83-.57-1.1-.33-.26-.76-.4-1.3-.4-.48,0-.86.1-1.14.3-.28.2-.42.47-.42.8,0,.31.11.55.33.72.22.17.6.31,1.12.41l1.21.23c.88.17,1.55.46,2.03.88.48.42.72.99.72,1.71,0,.53-.15,1.01-.45,1.44-.3.43-.72.77-1.27,1.02-.55.25-1.19.37-1.92.37-.8,0-1.49-.13-2.07-.4Z"/>
    <path class="cls-1" d="M81.36,785.06c-.64-.26-1.13-.67-1.48-1.23-.35-.56-.52-1.29-.52-2.19v-3.56h-3.2v-1.51h3.2v-3.01h1.87v3.01h3.78v1.51h-3.78v3.37c0,.59.1,1.06.29,1.4.19.35.49.6.88.75.4.15.92.22,1.58.22.36,0,.76-.03,1.19-.09v1.55c-.22.06-.46.1-.72.14-.26.03-.53.05-.79.05-.9,0-1.67-.13-2.3-.4Z"/>
    <path class="cls-1" d="M89.52,785.02c-.67-.38-1.18-.92-1.55-1.62-.37-.7-.55-1.52-.55-2.46s.19-1.72.56-2.43c.37-.71.89-1.26,1.55-1.65.66-.39,1.42-.59,2.27-.59s1.59.2,2.26.59c.67.39,1.19.94,1.57,1.65.38.71.57,1.52.57,2.43s-.19,1.75-.57,2.46c-.38.7-.9,1.24-1.57,1.62-.67.38-1.42.57-2.26.57s-1.61-.19-2.28-.57ZM93.11,783.74c.37-.26.66-.63.86-1.11.2-.48.31-1.04.31-1.69,0-.98-.23-1.76-.68-2.33-.46-.57-1.06-.85-1.8-.85-.49,0-.92.13-1.3.39-.37.26-.66.63-.86,1.11-.2.48-.31,1.04-.31,1.69s.1,1.21.3,1.69c.2.48.48.85.85,1.11.37.26.81.39,1.31.39s.94-.13,1.31-.39Z"/>
    <path class="cls-1" d="M109.67,772.69h8.46v1.67h-6.48v3.73h6.16v1.69h-6.16v5.51h-1.98v-12.6Z"/>
    <path class="cls-1" d="M121.44,776.56h1.87v.7c0,.44-.01.85-.04,1.22.29-.62.74-1.14,1.36-1.56.62-.41,1.42-.62,2.42-.62.31,0,.65.02,1.01.07v1.8c-.4-.05-.77-.07-1.12-.07-.77,0-1.43.12-1.97.35-.55.23-.96.59-1.24,1.05-.28.47-.42,1.05-.42,1.75v4.03h-1.87v-8.73Z"/>
    <path class="cls-1" d="M132.6,785.26c-.47-.22-.84-.52-1.11-.93-.27-.4-.41-.88-.41-1.43,0-.86.29-1.51.86-1.93.58-.43,1.36-.71,2.34-.86l1.71-.22c.34-.05.57-.15.71-.3.14-.15.21-.34.21-.58,0-.41-.15-.73-.45-.96-.3-.23-.72-.35-1.26-.35-.61,0-1.09.15-1.44.44-.35.29-.53.69-.56,1.2h-1.89c.04-.55.21-1.06.53-1.54.32-.47.76-.85,1.31-1.12s1.21-.41,1.95-.41c.84,0,1.53.14,2.07.41.54.28.94.67,1.21,1.19.26.52.4,1.15.4,1.91v5.51h-1.78v-.4c0-.13,0-.29.02-.47.01-.11.02-.22.04-.32-.23.46-.59.82-1.1,1.08-.5.26-1.11.4-1.82.4-.56,0-1.08-.11-1.55-.32ZM135.78,783.9c.37-.19.65-.45.86-.78.21-.34.32-.72.32-1.15v-1.13c-.06.07-.17.14-.34.2-.17.06-.39.12-.67.18l-1.12.2c-.59.11-1.04.27-1.36.49-.32.22-.48.54-.48.96s.14.73.43.96c.29.23.66.35,1.12.35s.87-.09,1.23-.28Z"/>
    <path class="cls-1" d="M141.96,776.56h1.85v.73c0,.07,0,.14-.02.22,0,.07,0,.16-.02.27.26-.44.63-.81,1.11-1.09.47-.28,1.04-.42,1.7-.42s1.25.15,1.74.44c.49.29.86.71,1.12,1.25.26.54.39,1.17.39,1.89v5.44h-1.89v-5.18c0-.76-.15-1.34-.45-1.75-.3-.41-.77-.61-1.42-.61-.44,0-.84.11-1.18.32-.34.22-.6.51-.78.88-.18.37-.27.77-.27,1.21v5.13h-1.87v-8.73Z"/>
    <path class="cls-1" d="M153.21,772.69h1.87v7.45c.2-.25.42-.49.65-.72l2.75-2.86h2.39l-5.8,5.8v2.93h-1.87v-12.6ZM155.73,781.3l1.3-1.19,4.25,5.18h-2.47l-3.08-4Z"/>
    <path class="cls-1" d="M175.79,784.75c-.76-.55-1.32-1.33-1.7-2.33-.38-1-.57-2.16-.57-3.46s.19-2.42.58-3.41c.39-.99.97-1.76,1.74-2.32.77-.56,1.68-.84,2.74-.84.85,0,1.6.19,2.25.57.65.38,1.16.91,1.53,1.58.37.68.59,1.48.67,2.4h-2.14c-.1-.92-.35-1.63-.76-2.12-.41-.49-.96-.74-1.66-.74-.64,0-1.17.2-1.61.6-.44.4-.76.97-.98,1.69-.22.73-.32,1.59-.32,2.58s.11,1.83.34,2.57c.23.74.56,1.33,1,1.75.44.42.96.63,1.56.63.74,0,1.32-.25,1.72-.74.4-.49.66-1.22.78-2.18h2.09c-.08.96-.32,1.79-.7,2.47-.38.69-.9,1.21-1.55,1.58-.65.36-1.41.54-2.29.54-1.06,0-1.96-.28-2.72-.83Z"/>
    <path class="cls-1" d="M186.6,785.26c-.47-.22-.84-.52-1.11-.93-.27-.4-.41-.88-.41-1.43,0-.86.29-1.51.86-1.93.58-.43,1.36-.71,2.34-.86l1.71-.22c.34-.05.57-.15.71-.3.14-.15.21-.34.21-.58,0-.41-.15-.73-.45-.96-.3-.23-.72-.35-1.26-.35-.61,0-1.09.15-1.44.44-.35.29-.53.69-.56,1.2h-1.89c.04-.55.21-1.06.53-1.54.32-.47.76-.85,1.31-1.12s1.21-.41,1.95-.41c.84,0,1.53.14,2.07.41.54.28.94.67,1.21,1.19.26.52.4,1.15.4,1.91v5.51h-1.78v-.4c0-.13,0-.29.02-.47.01-.11.02-.22.04-.32-.23.46-.59.82-1.1,1.08-.5.26-1.11.4-1.82.4-.56,0-1.08-.11-1.55-.32ZM189.78,783.9c.37-.19.65-.45.86-.78.21-.34.32-.72.32-1.15v-1.13c-.06.07-.17.14-.34.2-.17.06-.39.12-.67.18l-1.12.2c-.59.11-1.04.27-1.36.49-.32.22-.48.54-.48.96s.14.73.43.96c.29.23.66.35,1.12.35s.87-.09,1.23-.28Z"/>
    <path class="cls-1" d="M197.04,776.56h1.87v.7c0,.44-.01.85-.04,1.22.29-.62.74-1.14,1.36-1.56.62-.41,1.42-.62,2.42-.62.31,0,.65.02,1.01.07v1.8c-.4-.05-.77-.07-1.12-.07-.77,0-1.43.12-1.97.35-.55.23-.96.59-1.24,1.05-.28.47-.42,1.05-.42,1.75v4.03h-1.87v-8.73Z"/>
    <path class="cls-1" d="M209.56,785.18c-.49-.27-.87-.63-1.14-1.09.01.18.02.34.02.49.01.08.02.19.02.31v.41h-1.85v-12.6h1.85v4.3c0,.22-.01.48-.04.79.3-.46.69-.82,1.16-1.1.47-.28,1.03-.41,1.68-.41.77,0,1.45.2,2.05.59.6.39,1.07.94,1.41,1.65.34.71.51,1.52.51,2.45s-.17,1.74-.49,2.44c-.33.7-.8,1.24-1.4,1.62-.61.38-1.3.57-2.08.57-.65,0-1.22-.14-1.7-.41ZM212.14,783.72c.38-.27.67-.64.88-1.12.21-.47.31-1.02.31-1.65s-.11-1.18-.31-1.66c-.21-.49-.5-.86-.88-1.13-.38-.27-.81-.41-1.3-.41s-.91.13-1.28.4c-.37.26-.66.64-.87,1.12-.21.48-.31,1.04-.31,1.67s.1,1.18.31,1.66c.21.48.5.85.87,1.12.37.27.8.41,1.28.41s.93-.14,1.3-.41Z"/>
    <path class="cls-1" d="M219.32,785.03c-.65-.37-1.16-.9-1.52-1.59-.36-.7-.54-1.54-.54-2.54,0-.89.19-1.68.56-2.38.37-.7.88-1.25,1.52-1.65.64-.4,1.36-.59,2.17-.59.88,0,1.62.19,2.24.58.62.38,1.09.93,1.41,1.63.32.7.49,1.52.49,2.46v.4h-6.48c0,.56.11,1.06.32,1.48.22.42.51.74.87.97.37.23.78.34,1.25.34.55,0,1.01-.13,1.39-.4.37-.26.61-.67.7-1.21h1.87c-.06.58-.26,1.1-.58,1.56-.33.46-.78.83-1.36,1.1-.58.27-1.25.41-2.02.41-.88,0-1.64-.18-2.29-.55ZM223.11,778.33c-.38-.42-.92-.63-1.6-.63-.65,0-1.18.22-1.6.66-.42.44-.66.99-.72,1.65h4.52c-.01-.7-.21-1.25-.59-1.67Z"/>
    <path class="cls-1" d="M229.44,776.56h1.87v.7c0,.44-.01.85-.04,1.22.29-.62.74-1.14,1.36-1.56.62-.41,1.42-.62,2.42-.62.31,0,.65.02,1.01.07v1.8c-.4-.05-.77-.07-1.12-.07-.77,0-1.43.12-1.97.35-.55.23-.96.59-1.24,1.05-.28.47-.42,1.05-.42,1.75v4.03h-1.87v-8.73Z"/>
    <path class="cls-1" d="M252.07,778.08h-2.92v-1.51h2.92v-.54c0-1.19.36-2.09,1.07-2.71.71-.62,1.69-.93,2.93-.93.29,0,.58.02.86.04.29.03.55.07.79.12v1.53c-.49-.06-.9-.09-1.22-.09-.9,0-1.55.17-1.95.52-.4.35-.6.86-.6,1.55v.5h3.69v1.51h-3.69v7.22h-1.87v-7.22Z"/>
    <path class="cls-1" d="M262.28,785.02c-.67-.38-1.18-.92-1.55-1.62-.37-.7-.55-1.52-.55-2.46s.19-1.72.56-2.43c.37-.71.89-1.26,1.55-1.65.66-.39,1.42-.59,2.27-.59s1.59.2,2.26.59c.67.39,1.19.94,1.57,1.65.38.71.57,1.52.57,2.43s-.19,1.75-.57,2.46c-.38.7-.9,1.24-1.57,1.62-.67.38-1.42.57-2.26.57s-1.61-.19-2.28-.57ZM265.87,783.74c.37-.26.66-.63.86-1.11.2-.48.31-1.04.31-1.69,0-.98-.23-1.76-.68-2.33-.46-.57-1.06-.85-1.8-.85-.49,0-.92.13-1.3.39-.37.26-.66.63-.86,1.11-.2.48-.31,1.04-.31,1.69s.1,1.21.3,1.69c.2.48.48.85.85,1.11.37.26.81.39,1.31.39s.94-.13,1.31-.39Z"/>
    <path class="cls-1" d="M272.62,776.56h1.87v.7c0,.44-.01.85-.04,1.22.29-.62.74-1.14,1.36-1.56.62-.41,1.42-.62,2.42-.62.31,0,.65.02,1.01.07v1.8c-.4-.05-.77-.07-1.12-.07-.77,0-1.42.12-1.97.35-.55.23-.96.59-1.24,1.05-.28.47-.42,1.05-.42,1.75v4.03h-1.87v-8.73Z"/>
    <path class="cls-1" d="M295.92,785.18c-.49-.27-.87-.63-1.14-1.09.01.18.02.34.02.49.01.08.02.19.02.31v.41h-1.85v-12.6h1.85v4.3c0,.22-.01.48-.04.79.3-.46.69-.82,1.16-1.1.47-.28,1.03-.41,1.68-.41.77,0,1.45.2,2.05.59.6.39,1.07.94,1.41,1.65.34.71.51,1.52.51,2.45s-.17,1.74-.49,2.44c-.33.7-.8,1.24-1.4,1.62-.61.38-1.3.57-2.08.57-.65,0-1.21-.14-1.7-.41ZM298.5,783.72c.38-.27.67-.64.88-1.12.21-.47.32-1.02.32-1.65s-.11-1.18-.32-1.66c-.21-.49-.5-.86-.88-1.13s-.81-.41-1.3-.41-.91.13-1.28.4c-.37.26-.66.64-.87,1.12-.21.48-.31,1.04-.31,1.67s.1,1.18.31,1.66c.21.48.5.85.87,1.12s.8.41,1.28.41.93-.14,1.3-.41Z"/>
    <path class="cls-1" d="M305.68,785.03c-.65-.37-1.16-.9-1.52-1.59-.36-.7-.54-1.54-.54-2.54,0-.89.19-1.68.56-2.38.37-.7.88-1.25,1.52-1.65.64-.4,1.36-.59,2.17-.59.88,0,1.62.19,2.24.58.62.38,1.09.93,1.41,1.63.32.7.49,1.52.49,2.46v.4h-6.48c0,.56.11,1.06.32,1.48.22.42.51.74.87.97.37.23.78.34,1.25.34.55,0,1.01-.13,1.39-.4.37-.26.61-.67.7-1.21h1.87c-.06.58-.26,1.1-.58,1.56-.33.46-.78.83-1.36,1.1s-1.25.41-2.02.41c-.88,0-1.64-.18-2.3-.55ZM309.47,778.33c-.38-.42-.92-.63-1.6-.63-.65,0-1.18.22-1.6.66-.42.44-.66.99-.72,1.65h4.52c-.01-.7-.21-1.25-.59-1.67Z"/>
    <path class="cls-1" d="M314.17,783.78h9.41v1.51h-9.41v-1.51ZM314.9,776.56h4.81v1.51h-4.81v-1.51ZM317.89,772.89h2.23v2.27h-2.23v-2.27ZM318.23,776.56h1.85v8.73h-1.85v-8.73Z"/>
    <path class="cls-1" d="M325.52,776.56h1.85v.73c0,.07,0,.14-.02.22,0,.07,0,.16-.02.27.26-.44.63-.81,1.11-1.09.47-.28,1.04-.42,1.7-.42s1.25.15,1.74.44c.49.29.86.71,1.12,1.25.26.54.39,1.17.39,1.89v5.44h-1.89v-5.18c0-.76-.15-1.34-.45-1.75-.3-.41-.77-.61-1.42-.61-.44,0-.84.11-1.18.32-.34.22-.6.51-.78.88-.18.37-.27.77-.27,1.21v5.13h-1.87v-8.73Z"/>
    <path class="cls-1" d="M338.01,788.89c-.59-.28-1.05-.66-1.36-1.15-.31-.49-.47-1.07-.47-1.73h1.87c.01.56.2,1.01.57,1.33.37.32.87.49,1.5.49.73,0,1.31-.2,1.74-.59.43-.4.64-.98.64-1.76v-1.01c0-.3.01-.58.04-.83-.25.44-.62.8-1.11,1.06-.49.26-1.05.4-1.68.4-.78,0-1.47-.18-2.06-.54-.59-.36-1.06-.88-1.39-1.55-.33-.67-.5-1.45-.5-2.34s.18-1.64.53-2.3c.35-.66.83-1.17,1.43-1.54.6-.37,1.25-.55,1.96-.55s1.27.14,1.72.41c.45.28.81.64,1.09,1.1,0-.08,0-.15,0-.19,0-.04,0-.1,0-.17-.01-.12-.02-.26-.02-.43v-.43h1.87v8.37c0,1.45-.37,2.54-1.12,3.28-.74.73-1.8,1.1-3.17,1.1-.79,0-1.49-.14-2.08-.41ZM341.45,783.25c.37-.25.65-.59.86-1.04.21-.45.32-.96.32-1.54s-.1-1.05-.31-1.49c-.2-.44-.5-.79-.87-1.04-.38-.25-.8-.38-1.27-.38s-.89.12-1.27.37c-.38.25-.67.59-.88,1.04-.21.44-.31.95-.31,1.51s.1,1.09.31,1.54c.21.45.5.8.87,1.04.37.25.8.37,1.28.37s.9-.12,1.27-.37Z"/>
    <path class="cls-1" d="M356.84,776.56h1.78l.86,6.05c.02.2.05.47.09.79.07-.26.13-.53.18-.79l1.06-3.98h1.87l1.01,3.98c.01.07.02.14.04.2.05.14.1.34.14.59.05-.23.08-.4.09-.5.01-.1.02-.19.04-.29l.92-6.05h1.69l-1.73,8.73h-1.91l-1.12-4.32c-.05-.16-.08-.29-.09-.41-.02-.1-.05-.2-.07-.31-.02.12-.05.23-.07.32-.02.1-.04.17-.05.21,0,.04-.02.11-.05.19l-1.13,4.32h-1.89l-1.67-8.73Z"/>
    <path class="cls-1" d="M368.15,783.78h9.41v1.51h-9.41v-1.51ZM368.89,776.56h4.81v1.51h-4.81v-1.51ZM371.87,772.89h2.23v2.27h-2.23v-2.27ZM372.22,776.56h1.85v8.73h-1.85v-8.73Z"/>
    <path class="cls-1" d="M378.86,783.78h9.58v1.51h-9.58v-1.51ZM379.6,772.69h4.36v1.51h-4.36v-1.51ZM383.02,772.69h1.87v12.6h-1.87v-12.6Z"/>
    <path class="cls-1" d="M389.66,783.78h9.58v1.51h-9.58v-1.51ZM390.4,772.69h4.36v1.51h-4.36v-1.51ZM393.82,772.69h1.87v12.6h-1.87v-12.6Z"/>
    <path class="cls-1" d="M400.55,783.78h9.41v1.51h-9.41v-1.51ZM401.29,776.56h4.81v1.51h-4.81v-1.51ZM404.27,772.89h2.23v2.27h-2.23v-2.27ZM404.62,776.56h1.85v8.73h-1.85v-8.73Z"/>
    <path class="cls-1" d="M411.91,776.56h1.85v.73c0,.07,0,.14-.02.22,0,.07,0,.16-.02.27.26-.44.63-.81,1.11-1.09.47-.28,1.04-.42,1.7-.42s1.25.15,1.74.44c.49.29.86.71,1.12,1.25.26.54.39,1.17.39,1.89v5.44h-1.89v-5.18c0-.76-.15-1.34-.45-1.75-.3-.41-.77-.61-1.42-.61-.44,0-.84.11-1.18.32-.34.22-.6.51-.78.88-.18.37-.27.77-.27,1.21v5.13h-1.87v-8.73Z"/>
    <path class="cls-1" d="M424.39,788.89c-.59-.28-1.05-.66-1.36-1.15-.31-.49-.47-1.07-.47-1.73h1.87c.01.56.2,1.01.57,1.33.37.32.87.49,1.5.49.73,0,1.31-.2,1.74-.59.43-.4.64-.98.64-1.76v-1.01c0-.3.01-.58.04-.83-.25.44-.62.8-1.11,1.06-.49.26-1.05.4-1.68.4-.78,0-1.47-.18-2.06-.54-.59-.36-1.06-.88-1.39-1.55-.33-.67-.49-1.45-.49-2.34s.18-1.64.53-2.3c.35-.66.83-1.17,1.43-1.54.6-.37,1.25-.55,1.96-.55s1.27.14,1.72.41c.45.28.81.64,1.09,1.1,0-.08,0-.15,0-.19,0-.04,0-.1,0-.17-.01-.12-.02-.26-.02-.43v-.43h1.87v8.37c0,1.45-.37,2.54-1.12,3.28-.74.73-1.8,1.1-3.17,1.1-.79,0-1.48-.14-2.08-.41ZM427.83,783.25c.37-.25.65-.59.86-1.04.21-.45.31-.96.31-1.54s-.1-1.05-.31-1.49c-.2-.44-.49-.79-.87-1.04-.38-.25-.8-.38-1.27-.38s-.89.12-1.27.37c-.38.25-.67.59-.88,1.04-.21.44-.32.95-.32,1.51s.1,1.09.32,1.54c.21.45.5.8.87,1.04.37.25.8.37,1.28.37s.9-.12,1.27-.37Z"/>
    <path class="cls-1" d="M5.76,807.06c-.64-.26-1.13-.67-1.48-1.23-.35-.56-.52-1.29-.52-2.19v-3.56H.56v-1.51h3.2v-3.01h1.87v3.01h3.78v1.51h-3.78v3.37c0,.59.1,1.06.29,1.4.19.35.49.6.88.75.4.15.92.22,1.58.22.36,0,.76-.03,1.19-.09v1.55c-.22.06-.46.1-.72.14-.26.03-.53.05-.79.05-.9,0-1.67-.13-2.3-.4Z"/>
    <path class="cls-1" d="M13.92,807.02c-.67-.38-1.18-.92-1.55-1.62-.37-.7-.55-1.52-.55-2.46s.19-1.72.56-2.43c.37-.71.89-1.26,1.55-1.65.66-.39,1.42-.59,2.27-.59s1.59.2,2.26.59c.67.39,1.19.94,1.57,1.65.38.71.57,1.52.57,2.43s-.19,1.75-.57,2.46c-.38.7-.9,1.24-1.57,1.62-.67.38-1.42.57-2.26.57s-1.61-.19-2.28-.57ZM17.51,805.74c.37-.26.66-.63.86-1.11.2-.48.31-1.04.31-1.69,0-.98-.23-1.76-.68-2.33-.46-.57-1.06-.85-1.8-.85-.49,0-.92.13-1.3.39-.37.26-.66.63-.86,1.11-.2.48-.31,1.04-.31,1.69s.1,1.21.3,1.69c.2.48.48.85.85,1.11.37.26.81.39,1.31.39s.94-.13,1.31-.39Z"/>
    <path class="cls-1" d="M36.78,807.18c-.49-.27-.87-.63-1.14-1.09.01.18.02.34.02.49.01.08.02.19.02.31v.41h-1.85v-12.6h1.85v4.3c0,.22-.01.48-.04.79.3-.46.69-.82,1.16-1.1.47-.28,1.04-.41,1.68-.41.77,0,1.45.2,2.05.59.6.39,1.07.94,1.41,1.65.34.71.51,1.52.51,2.45s-.17,1.74-.5,2.44c-.33.7-.8,1.24-1.4,1.62-.61.38-1.3.57-2.08.57-.65,0-1.21-.14-1.7-.41ZM39.36,805.72c.38-.27.67-.64.88-1.12.21-.47.32-1.02.32-1.65s-.11-1.18-.32-1.66c-.21-.49-.5-.86-.88-1.13s-.81-.41-1.31-.41-.91.13-1.28.4c-.37.26-.66.64-.87,1.12-.21.48-.31,1.04-.31,1.67s.1,1.18.31,1.66c.21.48.5.85.87,1.12.37.27.8.41,1.28.41s.93-.14,1.31-.41Z"/>
    <path class="cls-1" d="M46.32,807.02c-.67-.38-1.18-.92-1.55-1.62-.37-.7-.55-1.52-.55-2.46s.19-1.72.56-2.43c.37-.71.89-1.26,1.55-1.65.66-.39,1.42-.59,2.27-.59s1.59.2,2.26.59c.67.39,1.19.94,1.57,1.65.38.71.57,1.52.57,2.43s-.19,1.75-.57,2.46c-.38.7-.9,1.24-1.57,1.62-.67.38-1.42.57-2.26.57s-1.61-.19-2.28-.57ZM49.91,805.74c.37-.26.66-.63.86-1.11.2-.48.31-1.04.31-1.69,0-.98-.23-1.76-.68-2.33-.46-.57-1.06-.85-1.8-.85-.49,0-.92.13-1.3.39-.37.26-.66.63-.86,1.11-.2.48-.31,1.04-.31,1.69s.1,1.21.3,1.69c.2.48.48.85.85,1.11.37.26.81.39,1.31.39s.94-.13,1.31-.39Z"/>
    <path class="cls-1" d="M56.94,807.17c-.49-.28-.86-.68-1.12-1.2-.26-.52-.39-1.16-.39-1.92v-5.49h1.87v5.13c0,.77.15,1.36.46,1.78.31.42.78.63,1.43.63.46,0,.84-.11,1.16-.32.32-.22.56-.52.73-.92.17-.4.25-.86.25-1.39v-4.91h1.87v8.73h-1.84v-.45c0-.19.01-.38.04-.58,0-.07,0-.13.02-.18-.23.47-.58.83-1.04,1.1-.47.26-1.04.4-1.71.4s-1.25-.14-1.74-.41Z"/>
    <path class="cls-1" d="M66.38,798.56h1.85v.73c0,.07,0,.14-.02.22,0,.07,0,.16-.02.27.26-.44.63-.81,1.11-1.09.47-.28,1.04-.42,1.7-.42s1.25.15,1.74.44c.49.29.86.71,1.12,1.25.26.54.39,1.17.39,1.89v5.44h-1.89v-5.18c0-.76-.15-1.34-.45-1.75s-.77-.61-1.42-.61c-.44,0-.84.11-1.18.32s-.6.51-.78.88c-.18.37-.27.77-.27,1.21v5.13h-1.87v-8.73Z"/>
    <path class="cls-1" d="M79.02,807.04c-.66-.36-1.17-.89-1.54-1.59-.37-.7-.55-1.54-.55-2.53,0-.92.19-1.74.58-2.44.39-.7.92-1.24,1.6-1.63.68-.38,1.43-.58,2.26-.58.76,0,1.42.14,2,.42.58.28,1.03.68,1.37,1.2.34.52.54,1.11.61,1.78h-1.91c-.06-.56-.27-1.03-.63-1.39-.36-.36-.85-.54-1.46-.54-.48,0-.91.13-1.3.4-.38.26-.68.64-.9,1.12-.22.48-.32,1.04-.32,1.67s.1,1.18.31,1.67c.21.49.5.86.88,1.12.38.26.82.4,1.32.4.64,0,1.14-.18,1.52-.53.38-.35.6-.83.68-1.43h1.87c-.08.7-.29,1.3-.63,1.82-.34.52-.8.91-1.4,1.19s-1.29.41-2.1.41c-.86,0-1.63-.18-2.29-.54Z"/>
    <path class="cls-1" d="M89.74,807.03c-.65-.37-1.16-.9-1.52-1.59-.36-.7-.54-1.54-.54-2.54,0-.89.19-1.68.56-2.38.37-.7.88-1.25,1.52-1.65.64-.4,1.36-.59,2.17-.59.88,0,1.62.19,2.24.58.62.38,1.09.93,1.41,1.63.32.7.49,1.52.49,2.46v.4h-6.48c0,.56.11,1.06.32,1.48.22.42.51.74.87.97.37.23.78.34,1.25.34.55,0,1.01-.13,1.39-.4.37-.26.61-.67.7-1.21h1.87c-.06.58-.26,1.1-.58,1.56-.33.46-.78.83-1.36,1.1-.58.27-1.25.41-2.02.41-.88,0-1.64-.18-2.3-.55ZM93.53,800.33c-.38-.42-.92-.63-1.6-.63-.65,0-1.18.22-1.6.66-.42.44-.66.99-.72,1.65h4.52c-.01-.7-.21-1.25-.59-1.67Z"/>
    <path class="cls-1" d="M109.02,805.78h9.41v1.51h-9.41v-1.51ZM109.76,798.56h4.81v1.51h-4.81v-1.51ZM112.75,794.89h2.23v2.27h-2.23v-2.27ZM113.09,798.56h1.85v8.73h-1.85v-8.73Z"/>
    <path class="cls-1" d="M121.51,807.05c-.61-.35-1.08-.88-1.43-1.58s-.52-1.54-.52-2.51.18-1.77.54-2.47c.36-.7.84-1.24,1.45-1.63.61-.38,1.29-.58,2.06-.58.66,0,1.22.14,1.69.43.47.29.82.65,1.06,1.08-.02-.24-.04-.5-.04-.79v-4.3h1.85v12.6h-1.85v-.43c0-.3.01-.56.04-.77-.23.42-.58.77-1.06,1.06-.48.29-1.05.43-1.71.43-.78,0-1.47-.18-2.08-.53ZM125.23,805.73c.38-.26.67-.64.88-1.12.21-.49.31-1.04.31-1.67,0-.97-.23-1.75-.68-2.32-.46-.58-1.06-.86-1.8-.86-.47,0-.89.14-1.27.41s-.67.65-.88,1.12c-.21.48-.31,1.03-.31,1.66s.1,1.19.31,1.67c.21.48.5.85.88,1.12.38.26.81.4,1.29.4s.89-.13,1.27-.4Z"/>
    <path class="cls-1" d="M132.94,807.03c-.65-.37-1.16-.9-1.52-1.59-.36-.7-.54-1.54-.54-2.54,0-.89.19-1.68.56-2.38.37-.7.88-1.25,1.52-1.65.64-.4,1.36-.59,2.17-.59.88,0,1.62.19,2.24.58.62.38,1.09.93,1.41,1.63.32.7.49,1.52.49,2.46v.4h-6.48c0,.56.11,1.06.32,1.48.22.42.51.74.87.97.37.23.78.34,1.25.34.55,0,1.01-.13,1.39-.4.37-.26.61-.67.7-1.21h1.87c-.06.58-.26,1.1-.58,1.56-.33.46-.78.83-1.36,1.1-.58.27-1.25.41-2.02.41-.88,0-1.64-.18-2.3-.55ZM136.73,800.33c-.38-.42-.92-.63-1.6-.63-.65,0-1.18.22-1.6.66-.42.44-.66.99-.72,1.65h4.52c-.01-.7-.21-1.25-.59-1.67Z"/>
    <path class="cls-1" d="M143.42,807.26c-.47-.22-.84-.52-1.11-.93-.27-.4-.41-.88-.41-1.43,0-.86.29-1.51.86-1.93.58-.43,1.36-.71,2.34-.86l1.71-.22c.34-.05.57-.15.71-.3.14-.15.21-.34.21-.58,0-.41-.15-.73-.45-.96-.3-.23-.72-.35-1.26-.35-.61,0-1.09.15-1.44.44-.35.29-.53.69-.56,1.2h-1.89c.04-.55.21-1.06.53-1.54.32-.47.76-.85,1.31-1.12.56-.27,1.21-.41,1.95-.41.84,0,1.53.14,2.07.41.54.28.94.67,1.21,1.19.26.52.4,1.15.4,1.91v5.51h-1.78v-.4c0-.13,0-.29.02-.47.01-.11.02-.22.04-.32-.23.46-.59.82-1.1,1.08-.5.26-1.11.4-1.82.4-.56,0-1.08-.11-1.55-.32ZM146.6,805.9c.37-.19.65-.45.86-.78.21-.34.31-.72.31-1.15v-1.13c-.06.07-.17.14-.34.2-.17.06-.39.12-.67.18l-1.12.2c-.59.11-1.04.27-1.36.49-.32.22-.48.54-.48.96s.14.73.43.96c.29.23.66.35,1.12.35s.87-.09,1.23-.28Z"/>
    <path class="cls-1" d="M154.69,807.19c-.58-.26-1.03-.64-1.35-1.12-.32-.49-.5-1.05-.52-1.7h1.87c.02.56.21,1.01.56,1.33.35.32.85.49,1.49.49.54,0,.97-.12,1.31-.35.33-.23.49-.54.49-.93,0-.32-.12-.58-.35-.77-.23-.19-.6-.34-1.11-.43l-1.21-.23c-.88-.17-1.56-.47-2.04-.9s-.73-.99-.73-1.67c0-.49.15-.94.45-1.33.3-.4.71-.71,1.24-.94.53-.23,1.13-.34,1.8-.34.74,0,1.39.12,1.93.36.54.24.96.58,1.25,1.01.29.43.46.95.49,1.55h-1.85c-.05-.47-.24-.83-.57-1.1-.33-.26-.76-.4-1.3-.4-.48,0-.86.1-1.14.3-.28.2-.42.47-.42.8,0,.31.11.55.33.72.22.17.6.31,1.12.41l1.21.23c.88.17,1.55.46,2.03.88.48.42.72.99.72,1.71,0,.53-.15,1.01-.45,1.44-.3.43-.72.77-1.27,1.02-.55.25-1.19.37-1.92.37-.8,0-1.49-.13-2.07-.4Z"/>
    <path class="cls-1" d="M175.92,807.02c-.67-.38-1.18-.92-1.55-1.62-.37-.7-.55-1.52-.55-2.46s.19-1.72.56-2.43c.37-.71.89-1.26,1.55-1.65.66-.39,1.42-.59,2.27-.59s1.59.2,2.26.59c.67.39,1.19.94,1.57,1.65.38.71.57,1.52.57,2.43s-.19,1.75-.57,2.46c-.38.7-.9,1.24-1.57,1.62-.67.38-1.42.57-2.26.57s-1.61-.19-2.28-.57ZM179.51,805.74c.37-.26.66-.63.86-1.11.2-.48.31-1.04.31-1.69,0-.98-.23-1.76-.68-2.33-.46-.57-1.06-.85-1.8-.85-.49,0-.92.13-1.3.39-.37.26-.66.63-.86,1.11-.2.48-.31,1.04-.31,1.69s.1,1.21.3,1.69c.2.48.48.85.85,1.11.37.26.81.39,1.31.39s.94-.13,1.31-.39Z"/>
    <path class="cls-1" d="M187.3,800.08h-2.92v-1.51h2.92v-.54c0-1.19.36-2.09,1.07-2.71.71-.62,1.69-.93,2.93-.93.29,0,.58.02.86.04.29.03.55.07.79.12v1.53c-.49-.06-.9-.09-1.22-.09-.9,0-1.55.17-1.95.52-.4.35-.6.86-.6,1.55v.5h3.69v1.51h-3.69v7.22h-1.87v-7.22ZM192.63,798.56h1.6v1.51h-1.6v-1.51ZM194.23,798.56h1.69v1.51h-1.69v-1.51ZM198.12,800.08h-2.95v-1.51h2.95v-.54c0-1.19.35-2.09,1.05-2.71.7-.62,1.68-.93,2.92-.93.3,0,.59.02.87.04.28.03.54.07.78.12v1.53c-.5-.06-.91-.09-1.22-.09-.91,0-1.56.17-1.95.52-.39.35-.58.86-.58,1.55v.5h3.69v1.51h-3.69v7.22h-1.87v-7.22Z"/>
    <path class="cls-1" d="M219.12,807.02c-.67-.38-1.18-.92-1.55-1.62-.37-.7-.55-1.52-.55-2.46s.19-1.72.56-2.43c.37-.71.89-1.26,1.55-1.65.66-.39,1.42-.59,2.27-.59s1.59.2,2.26.59c.67.39,1.19.94,1.57,1.65.38.71.57,1.52.57,2.43s-.19,1.75-.57,2.46c-.38.7-.9,1.24-1.57,1.62-.67.38-1.42.57-2.26.57s-1.61-.19-2.28-.57ZM222.71,805.74c.37-.26.66-.63.86-1.11.2-.48.31-1.04.31-1.69,0-.98-.23-1.76-.68-2.33-.46-.57-1.06-.85-1.8-.85-.49,0-.92.13-1.3.39-.37.26-.66.63-.86,1.11-.2.48-.31,1.04-.31,1.69s.1,1.21.3,1.69c.2.48.48.85.85,1.11.37.26.81.39,1.31.39s.94-.13,1.31-.39Z"/>
    <path class="cls-1" d="M230.5,800.08h-2.92v-1.51h2.92v-.54c0-1.19.36-2.09,1.07-2.71.71-.62,1.69-.93,2.93-.93.29,0,.58.02.86.04.29.03.55.07.79.12v1.53c-.49-.06-.9-.09-1.22-.09-.9,0-1.55.17-1.95.52-.4.35-.6.86-.6,1.55v.5h3.69v1.51h-3.69v7.22h-1.87v-7.22Z"/>
    <path class="cls-1" d="M251.42,807.26c-.47-.22-.84-.52-1.11-.93-.27-.4-.41-.88-.41-1.43,0-.86.29-1.51.86-1.93.58-.43,1.36-.71,2.34-.86l1.71-.22c.34-.05.57-.15.71-.3.14-.15.21-.34.21-.58,0-.41-.15-.73-.45-.96-.3-.23-.72-.35-1.26-.35-.61,0-1.09.15-1.44.44-.35.29-.53.69-.56,1.2h-1.89c.04-.55.21-1.06.53-1.54.32-.47.76-.85,1.31-1.12s1.21-.41,1.95-.41c.84,0,1.53.14,2.07.41.54.28.94.67,1.21,1.19.26.52.4,1.15.4,1.91v5.51h-1.78v-.4c0-.13,0-.29.02-.47.01-.11.02-.22.04-.32-.23.46-.59.82-1.1,1.08-.5.26-1.11.4-1.82.4-.56,0-1.08-.11-1.55-.32ZM254.6,805.9c.37-.19.65-.45.86-.78.21-.34.31-.72.31-1.15v-1.13c-.06.07-.17.14-.34.2-.17.06-.39.12-.67.18l-1.12.2c-.59.11-1.04.27-1.36.49-.32.22-.48.54-.48.96s.14.73.43.96c.29.23.66.35,1.12.35s.87-.09,1.23-.28Z"/>
    <path class="cls-1" d="M260.78,798.56h1.85v.73c0,.07,0,.14-.02.22,0,.07,0,.16-.02.27.26-.44.63-.81,1.11-1.09.47-.28,1.04-.42,1.7-.42s1.25.15,1.74.44c.49.29.86.71,1.12,1.25.26.54.39,1.17.39,1.89v5.44h-1.89v-5.18c0-.76-.15-1.34-.45-1.75-.3-.41-.77-.61-1.42-.61-.44,0-.84.11-1.18.32-.34.22-.6.51-.78.88-.18.37-.27.77-.27,1.21v5.13h-1.87v-8.73Z"/>
    <path class="cls-1" d="M272.7,807.05c-.61-.35-1.08-.88-1.43-1.58-.35-.7-.52-1.54-.52-2.51s.18-1.77.54-2.47c.36-.7.84-1.24,1.45-1.63.61-.38,1.29-.58,2.06-.58.66,0,1.22.14,1.69.43.47.29.82.65,1.06,1.08-.02-.24-.04-.5-.04-.79v-4.3h1.85v12.6h-1.85v-.43c0-.3.01-.56.04-.77-.23.42-.58.77-1.06,1.06-.48.29-1.05.43-1.71.43-.78,0-1.47-.18-2.08-.53ZM276.43,805.73c.38-.26.67-.64.88-1.12.21-.49.31-1.04.31-1.67,0-.97-.23-1.75-.68-2.32-.46-.58-1.06-.86-1.8-.86-.47,0-.89.14-1.27.41s-.67.65-.88,1.12c-.21.48-.31,1.03-.31,1.66s.1,1.19.31,1.67c.21.48.5.85.88,1.12.38.26.81.4,1.29.4s.89-.13,1.27-.4Z"/>
    <path class="cls-1" d="M295.09,807.19c-.58-.26-1.03-.64-1.35-1.12-.32-.49-.5-1.05-.52-1.7h1.87c.02.56.21,1.01.56,1.33s.85.49,1.49.49c.54,0,.97-.12,1.3-.35.33-.23.49-.54.49-.93,0-.32-.12-.58-.35-.77-.23-.19-.6-.34-1.11-.43l-1.21-.23c-.88-.17-1.56-.47-2.04-.9-.49-.43-.73-.99-.73-1.67,0-.49.15-.94.45-1.33.3-.4.71-.71,1.24-.94.53-.23,1.13-.34,1.8-.34.74,0,1.39.12,1.93.36.54.24.96.58,1.25,1.01.29.43.46.95.49,1.55h-1.85c-.05-.47-.24-.83-.57-1.1-.33-.26-.77-.4-1.31-.4-.48,0-.86.1-1.14.3s-.42.47-.42.8c0,.31.11.55.33.72.22.17.6.31,1.12.41l1.21.23c.88.17,1.55.46,2.03.88.48.42.72.99.72,1.71,0,.53-.15,1.01-.45,1.44-.3.43-.72.77-1.27,1.02-.55.25-1.19.37-1.92.37-.8,0-1.49-.13-2.07-.4Z"/>
    <path class="cls-1" d="M305.52,807.02c-.67-.38-1.18-.92-1.55-1.62-.37-.7-.55-1.52-.55-2.46s.19-1.72.56-2.43c.37-.71.89-1.26,1.55-1.65.66-.39,1.42-.59,2.27-.59s1.59.2,2.26.59c.67.39,1.19.94,1.57,1.65.38.71.57,1.52.57,2.43s-.19,1.75-.57,2.46c-.38.7-.9,1.24-1.57,1.62-.67.38-1.42.57-2.26.57s-1.61-.19-2.28-.57ZM309.11,805.74c.37-.26.66-.63.86-1.11.2-.48.31-1.04.31-1.69,0-.98-.23-1.76-.68-2.33-.46-.57-1.06-.85-1.8-.85-.49,0-.92.13-1.3.39-.37.26-.66.63-.86,1.11-.2.48-.31,1.04-.31,1.69s.1,1.21.3,1.69c.2.48.48.85.85,1.11.37.26.81.39,1.31.39s.94-.13,1.31-.39Z"/>
    <path class="cls-1" d="M327.26,810.89c-.59-.28-1.05-.66-1.36-1.15-.31-.49-.47-1.07-.47-1.73h1.87c.01.56.2,1.01.57,1.33.37.32.87.49,1.5.49.73,0,1.31-.2,1.74-.59.43-.4.64-.98.64-1.76v-1.01c0-.3.01-.58.04-.83-.25.44-.62.8-1.11,1.06-.49.26-1.05.4-1.68.4-.78,0-1.47-.18-2.06-.54-.59-.36-1.06-.88-1.39-1.55-.33-.67-.49-1.45-.49-2.34s.18-1.64.53-2.3c.35-.66.83-1.17,1.43-1.54.6-.37,1.25-.55,1.96-.55s1.27.14,1.72.41c.45.28.81.64,1.09,1.1,0-.08,0-.15,0-.19,0-.04,0-.1,0-.17-.01-.12-.02-.26-.02-.43v-.43h1.87v8.37c0,1.45-.37,2.54-1.12,3.28-.74.73-1.8,1.1-3.17,1.1-.79,0-1.48-.14-2.08-.41ZM330.7,805.25c.37-.25.65-.59.86-1.04.21-.45.31-.96.31-1.54s-.1-1.05-.31-1.49c-.2-.44-.49-.79-.87-1.04-.38-.25-.8-.38-1.27-.38s-.89.12-1.27.37c-.38.25-.67.59-.88,1.04-.21.44-.32.95-.32,1.51s.1,1.09.32,1.54c.21.45.5.8.87,1.04.37.25.8.37,1.28.37s.9-.12,1.27-.37Z"/>
    <path class="cls-1" d="M337.46,798.56h1.87v.7c0,.44-.01.85-.04,1.22.29-.62.74-1.14,1.36-1.56.62-.41,1.42-.62,2.42-.62.31,0,.65.02,1.01.07v1.8c-.4-.05-.77-.07-1.12-.07-.77,0-1.43.12-1.97.35-.55.23-.96.59-1.24,1.05-.28.47-.42,1.05-.42,1.75v4.03h-1.87v-8.73Z"/>
    <path class="cls-1" d="M348.62,807.26c-.47-.22-.84-.52-1.11-.93-.27-.4-.41-.88-.41-1.43,0-.86.29-1.51.86-1.93.58-.43,1.36-.71,2.34-.86l1.71-.22c.34-.05.57-.15.71-.3.14-.15.21-.34.21-.58,0-.41-.15-.73-.45-.96-.3-.23-.72-.35-1.26-.35-.61,0-1.09.15-1.44.44-.35.29-.53.69-.56,1.2h-1.89c.04-.55.21-1.06.53-1.54.32-.47.76-.85,1.31-1.12s1.21-.41,1.95-.41c.84,0,1.53.14,2.07.41.54.28.94.67,1.21,1.19.26.52.4,1.15.4,1.91v5.51h-1.78v-.4c0-.13,0-.29.02-.47.01-.11.02-.22.04-.32-.23.46-.59.82-1.1,1.08-.5.26-1.11.4-1.82.4-.56,0-1.08-.11-1.55-.32ZM351.8,805.9c.37-.19.65-.45.86-.78.21-.34.31-.72.31-1.15v-1.13c-.06.07-.17.14-.34.2-.17.06-.39.12-.67.18l-1.12.2c-.59.11-1.04.27-1.36.49-.32.22-.48.54-.48.96s.14.73.43.96c.29.23.66.35,1.12.35s.87-.09,1.23-.28Z"/>
    <path class="cls-1" d="M359.81,807.04c-.66-.36-1.17-.89-1.54-1.59-.37-.7-.55-1.54-.55-2.53,0-.92.19-1.74.58-2.44.39-.7.92-1.24,1.6-1.63.68-.38,1.43-.58,2.26-.58.76,0,1.42.14,2,.42.58.28,1.03.68,1.37,1.2.34.52.54,1.11.61,1.78h-1.91c-.06-.56-.27-1.03-.63-1.39-.36-.36-.85-.54-1.46-.54-.48,0-.91.13-1.3.4-.38.26-.68.64-.9,1.12-.22.48-.32,1.04-.32,1.67s.1,1.18.32,1.67c.21.49.5.86.88,1.12.38.26.82.4,1.32.4.64,0,1.14-.18,1.52-.53.38-.35.6-.83.68-1.43h1.87c-.08.7-.29,1.3-.63,1.82-.34.52-.8.91-1.4,1.19-.59.28-1.29.41-2.1.41-.86,0-1.63-.18-2.29-.54Z"/>
    <path class="cls-1" d="M368.22,805.78h9.41v1.51h-9.41v-1.51ZM368.96,798.56h4.81v1.51h-4.81v-1.51ZM371.95,794.89h2.23v2.27h-2.23v-2.27ZM372.29,798.56h1.85v8.73h-1.85v-8.73Z"/>
    <path class="cls-1" d="M381.12,807.02c-.67-.38-1.18-.92-1.55-1.62-.37-.7-.55-1.52-.55-2.46s.19-1.72.56-2.43c.37-.71.89-1.26,1.55-1.65.66-.39,1.42-.59,2.27-.59s1.59.2,2.26.59c.67.39,1.19.94,1.57,1.65.38.71.57,1.52.57,2.43s-.19,1.75-.57,2.46c-.38.7-.9,1.24-1.57,1.62-.67.38-1.42.57-2.26.57s-1.61-.19-2.28-.57ZM384.71,805.74c.37-.26.66-.63.86-1.11.2-.48.31-1.04.31-1.69,0-.98-.23-1.76-.68-2.33-.46-.57-1.06-.85-1.8-.85-.49,0-.92.13-1.3.39-.37.26-.66.63-.86,1.11-.2.48-.31,1.04-.31,1.69s.1,1.21.3,1.69c.2.48.48.85.85,1.11.37.26.81.39,1.31.39s.94-.13,1.31-.39Z"/>
    <path class="cls-1" d="M391.74,807.17c-.49-.28-.86-.68-1.12-1.2s-.39-1.16-.39-1.92v-5.49h1.87v5.13c0,.77.15,1.36.46,1.78.31.42.78.63,1.43.63.46,0,.84-.11,1.16-.32.32-.22.56-.52.73-.92s.25-.86.25-1.39v-4.91h1.87v8.73h-1.84v-.45c0-.19.01-.38.04-.58,0-.07,0-.13.02-.18-.23.47-.58.83-1.04,1.1-.47.26-1.04.4-1.71.4s-1.25-.14-1.74-.41Z"/>
    <path class="cls-1" d="M403.08,807.19c-.58-.26-1.03-.64-1.35-1.12-.32-.49-.5-1.05-.52-1.7h1.87c.02.56.21,1.01.56,1.33s.85.49,1.49.49c.54,0,.97-.12,1.3-.35.33-.23.49-.54.49-.93,0-.32-.12-.58-.35-.77-.23-.19-.6-.34-1.11-.43l-1.21-.23c-.88-.17-1.56-.47-2.04-.9-.49-.43-.73-.99-.73-1.67,0-.49.15-.94.45-1.33.3-.4.71-.71,1.24-.94.53-.23,1.13-.34,1.8-.34.74,0,1.39.12,1.93.36.54.24.96.58,1.25,1.01.29.43.46.95.49,1.55h-1.85c-.05-.47-.24-.83-.57-1.1-.33-.26-.77-.4-1.31-.4-.48,0-.86.1-1.14.3s-.42.47-.42.8c0,.31.11.55.33.72.22.17.6.31,1.12.41l1.21.23c.88.17,1.55.46,2.03.88.48.42.72.99.72,1.71,0,.53-.15,1.01-.45,1.44-.3.43-.72.77-1.27,1.02-.55.25-1.19.37-1.92.37-.8,0-1.49-.13-2.07-.4Z"/>
    <path class="cls-1" d="M411.33,805.78h9.58v1.51h-9.58v-1.51ZM412.07,794.69h4.36v1.51h-4.36v-1.51ZM415.49,794.69h1.87v12.6h-1.87v-12.6Z"/>
    <path class="cls-1" d="M425.78,807.1l-3.46-8.53h2.07l2.02,5.6c.22.62.33.98.34,1.06.04-.11.07-.2.09-.28.02-.08.05-.16.07-.26.04-.11.06-.19.08-.26.02-.07.05-.15.1-.26l1.85-5.6h1.94l-4.64,12.44h-1.98l1.51-3.91Z"/>
    <path class="cls-1" d="M3.49,829.19c-.58-.26-1.03-.64-1.35-1.12-.32-.49-.5-1.05-.52-1.7h1.87c.02.56.21,1.01.56,1.33.35.32.85.49,1.49.49.54,0,.97-.12,1.31-.35.33-.23.49-.54.49-.93,0-.32-.12-.58-.35-.77-.23-.19-.6-.34-1.11-.43l-1.21-.23c-.88-.17-1.56-.47-2.04-.9s-.73-.99-.73-1.67c0-.49.15-.94.45-1.33.3-.4.71-.71,1.24-.94.53-.23,1.13-.34,1.8-.34.74,0,1.39.12,1.93.36.54.24.96.58,1.25,1.01.29.43.46.95.49,1.55h-1.85c-.05-.47-.24-.83-.57-1.1-.33-.26-.76-.4-1.3-.4-.48,0-.86.1-1.14.3-.28.2-.42.47-.42.8,0,.31.11.55.33.72.22.17.6.31,1.12.41l1.21.23c.88.17,1.55.46,2.03.88.48.42.72.99.72,1.71,0,.53-.15,1.01-.45,1.44-.3.43-.72.77-1.27,1.02-.55.25-1.19.37-1.92.37-.8,0-1.49-.13-2.07-.4Z"/>
    <path class="cls-1" d="M12.62,816.69h1.85v4.37c0,.12,0,.22-.02.31,0,.07,0,.14,0,.2,0,.06,0,.13,0,.22.26-.44.63-.81,1.1-1.09.47-.28,1.03-.42,1.69-.42s1.27.15,1.76.44c.49.29.85.71,1.11,1.24.25.53.38,1.17.38,1.9v5.44h-1.87v-5.18c0-.76-.15-1.34-.45-1.75-.3-.41-.77-.61-1.4-.61-.47,0-.87.11-1.21.32-.34.22-.6.51-.78.88-.18.37-.27.77-.27,1.21v5.13h-1.85v-12.6Z"/>
    <path class="cls-1" d="M24.62,829.26c-.47-.22-.84-.52-1.11-.93-.27-.4-.41-.88-.41-1.43,0-.86.29-1.51.86-1.93.58-.43,1.36-.71,2.34-.86l1.71-.22c.34-.05.57-.15.71-.3.14-.15.21-.34.21-.58,0-.41-.15-.73-.45-.96-.3-.23-.72-.35-1.26-.35-.61,0-1.09.15-1.44.44-.35.29-.53.69-.56,1.2h-1.89c.04-.55.21-1.06.53-1.54.32-.47.76-.85,1.31-1.12.56-.27,1.21-.41,1.95-.41.84,0,1.53.14,2.07.41.54.28.94.67,1.21,1.19.26.52.4,1.15.4,1.91v5.51h-1.78v-.4c0-.13,0-.29.02-.47.01-.11.02-.22.04-.32-.23.46-.59.82-1.1,1.08-.5.26-1.11.4-1.82.4-.56,0-1.08-.11-1.55-.32ZM27.8,827.9c.37-.19.65-.45.86-.78.21-.34.31-.72.31-1.15v-1.13c-.06.07-.17.14-.34.2-.17.06-.39.12-.67.18l-1.12.2c-.59.11-1.04.27-1.36.49-.32.22-.48.54-.48.96s.14.73.43.96c.29.23.66.35,1.12.35s.87-.09,1.23-.28Z"/>
    <path class="cls-1" d="M35.06,820.56h1.87v.7c0,.44-.01.85-.04,1.22.29-.62.74-1.14,1.36-1.56.62-.41,1.42-.62,2.42-.62.31,0,.65.02,1.01.07v1.8c-.4-.05-.77-.07-1.12-.07-.77,0-1.43.12-1.97.35-.55.23-.96.59-1.24,1.05-.28.47-.42,1.05-.42,1.75v4.03h-1.87v-8.73Z"/>
    <path class="cls-1" d="M44.23,827.78h9.41v1.51h-9.41v-1.51ZM44.96,820.56h4.81v1.51h-4.81v-1.51ZM47.95,816.89h2.23v2.27h-2.23v-2.27ZM48.29,820.56h1.85v8.73h-1.85v-8.73Z"/>
    <path class="cls-1" d="M55.58,820.56h1.85v.73c0,.07,0,.14-.02.22,0,.07,0,.16-.02.27.26-.44.63-.81,1.11-1.09.47-.28,1.04-.42,1.7-.42s1.25.15,1.74.44c.49.29.86.71,1.12,1.25.26.54.39,1.17.39,1.89v5.44h-1.89v-5.18c0-.76-.15-1.34-.45-1.75s-.77-.61-1.42-.61c-.44,0-.84.11-1.18.32s-.6.51-.78.88c-.18.37-.27.77-.27,1.21v5.13h-1.87v-8.73Z"/>
    <path class="cls-1" d="M68.07,832.89c-.59-.28-1.05-.66-1.36-1.15-.31-.49-.47-1.07-.47-1.73h1.87c.01.56.2,1.01.57,1.33.37.32.87.49,1.5.49.73,0,1.31-.2,1.74-.59.43-.4.64-.98.64-1.76v-1.01c0-.3.01-.58.04-.83-.25.44-.62.8-1.11,1.06-.49.26-1.05.4-1.68.4-.78,0-1.47-.18-2.06-.54-.59-.36-1.06-.88-1.39-1.55-.33-.67-.5-1.45-.5-2.34s.18-1.64.53-2.3c.35-.66.83-1.17,1.43-1.54.6-.37,1.25-.55,1.96-.55s1.27.14,1.72.41c.45.28.81.64,1.09,1.1,0-.08,0-.15,0-.19,0-.04,0-.1,0-.17-.01-.12-.02-.26-.02-.43v-.43h1.87v8.37c0,1.45-.37,2.54-1.12,3.28-.74.73-1.8,1.1-3.17,1.1-.79,0-1.48-.14-2.08-.41ZM71.5,827.25c.37-.25.65-.59.86-1.04.21-.45.32-.96.32-1.54s-.1-1.05-.31-1.49c-.2-.44-.5-.79-.87-1.04-.38-.25-.8-.38-1.27-.38s-.89.12-1.27.37c-.38.25-.67.59-.88,1.04-.21.44-.31.95-.31,1.51s.1,1.09.31,1.54c.21.45.5.8.87,1.04.37.25.8.37,1.28.37s.9-.12,1.27-.37Z"/>
    <path class="cls-1" d="M90.99,829.1l-3.46-8.53h2.07l2.02,5.6c.22.62.33.98.34,1.06.04-.11.07-.2.09-.28.02-.08.05-.16.07-.26.04-.11.06-.19.08-.26.02-.07.05-.15.1-.26l1.85-5.6h1.94l-4.64,12.44h-1.98l1.51-3.91Z"/>
    <path class="cls-1" d="M100.32,829.02c-.67-.38-1.18-.92-1.55-1.62-.37-.7-.55-1.52-.55-2.46s.19-1.72.56-2.43c.37-.71.89-1.26,1.55-1.65.66-.39,1.42-.59,2.27-.59s1.59.2,2.26.59c.67.39,1.19.94,1.57,1.65.38.71.57,1.52.57,2.43s-.19,1.75-.57,2.46c-.38.7-.9,1.24-1.57,1.62-.67.38-1.42.57-2.26.57s-1.61-.19-2.28-.57ZM103.91,827.74c.37-.26.66-.63.86-1.11.2-.48.31-1.04.31-1.69,0-.98-.23-1.76-.68-2.33-.46-.57-1.06-.85-1.8-.85-.49,0-.92.13-1.3.39-.37.26-.66.63-.86,1.11-.2.48-.31,1.04-.31,1.69s.1,1.21.3,1.69c.2.48.48.85.85,1.11.37.26.81.39,1.31.39s.94-.13,1.31-.39Z"/>
    <path class="cls-1" d="M110.94,829.17c-.49-.28-.86-.68-1.12-1.2-.26-.52-.39-1.16-.39-1.92v-5.49h1.87v5.13c0,.77.15,1.36.46,1.78.31.42.78.63,1.43.63.46,0,.84-.11,1.16-.32.32-.22.56-.52.73-.92.17-.4.25-.86.25-1.39v-4.91h1.87v8.73h-1.84v-.45c0-.19.01-.38.04-.58,0-.07,0-.13.02-.18-.23.47-.58.83-1.04,1.1-.47.26-1.04.4-1.71.4s-1.25-.14-1.74-.41Z"/>
    <path class="cls-1" d="M121.46,820.56h1.87v.7c0,.44-.01.85-.04,1.22.29-.62.74-1.14,1.36-1.56.62-.41,1.42-.62,2.42-.62.31,0,.65.02,1.01.07v1.8c-.4-.05-.77-.07-1.12-.07-.77,0-1.42.12-1.97.35-.55.23-.96.59-1.24,1.05-.28.47-.42,1.05-.42,1.75v4.03h-1.87v-8.73Z"/>
    <path class="cls-1" d="M133.07,829.19c-.58-.26-1.03-.64-1.35-1.12-.32-.49-.5-1.05-.52-1.7h1.87c.02.56.21,1.01.56,1.33.35.32.85.49,1.49.49.54,0,.97-.12,1.3-.35.33-.23.5-.54.5-.93,0-.32-.12-.58-.35-.77-.23-.19-.6-.34-1.11-.43l-1.21-.23c-.88-.17-1.56-.47-2.04-.9-.49-.43-.73-.99-.73-1.67,0-.49.15-.94.45-1.33.3-.4.71-.71,1.24-.94.53-.23,1.13-.34,1.8-.34.74,0,1.39.12,1.93.36.54.24.96.58,1.25,1.01s.46.95.5,1.55h-1.85c-.05-.47-.24-.83-.57-1.1-.33-.26-.77-.4-1.31-.4-.48,0-.86.1-1.14.3s-.42.47-.42.8c0,.31.11.55.33.72.22.17.6.31,1.12.41l1.21.23c.88.17,1.55.46,2.03.88.48.42.72.99.72,1.71,0,.53-.15,1.01-.45,1.44-.3.43-.72.77-1.27,1.02-.55.25-1.19.37-1.92.37-.8,0-1.49-.13-2.07-.4Z"/>
    <path class="cls-1" d="M144.47,826.67h2.63v2.63h-2.63v-2.63Z"/>
  </g>
</svg>