<?xml version="1.0" encoding="UTF-8"?>
<svg id="Layer_1" data-name="Layer 1" xmlns="http://www.w3.org/2000/svg" xmlns:xlink="http://www.w3.org/1999/xlink" viewBox="0 0 253 259">
  <defs>
    <style>
      .cls-1 {
        filter: url(#drop-shadow-6);
      }

      .cls-2 {
        filter: url(#drop-shadow-5);
      }

      .cls-3 {
        fill: #fff;
      }
    </style>
    <filter id="drop-shadow-5" x="61" y="7" width="187" height="180" filterUnits="userSpaceOnUse">
      <feOffset dx="-3" dy="-3"/>
      <feGaussianBlur result="blur" stdDeviation="3"/>
      <feFlood flood-color="#2c72ff" flood-opacity=".8"/>
      <feComposite in2="blur" operator="in"/>
      <feComposite in="SourceGraphic"/>
    </filter>
    <filter id="drop-shadow-6" x="3" y="67" width="196" height="186" filterUnits="userSpaceOnUse">
      <feOffset dx="-3" dy="-3"/>
      <feGaussianBlur result="blur-2" stdDeviation="3"/>
      <feFlood flood-color="#2c72ff" flood-opacity=".8"/>
      <feComposite in2="blur-2" operator="in"/>
      <feComposite in="SourceGraphic"/>
    </filter>
  </defs>
  <g class="cls-2">
    <path class="cls-3" d="M76.27,37.85l14.99,14.99-2.91,2.91-14.99-14.99,2.91-2.91ZM100.83,24.87l3.41,3.41-21.68,21.68-3.41-3.41,21.68-21.68ZM95.04,19.08l14.99,14.99-2.88,2.88-14.99-14.99,2.88-2.88Z"/>
    <path class="cls-3" d="M96,61.55c-.27-2.17.12-4.42,1.18-6.75,1.05-2.33,2.68-4.6,4.89-6.81,2.31-2.31,4.68-3.98,7.11-5,2.43-1.02,4.75-1.36,6.99-1.01,2.23.35,4.22,1.4,5.98,3.16,1.4,1.4,2.35,2.93,2.83,4.57.49,1.64.51,3.3.08,4.97-.43,1.67-1.28,3.3-2.54,4.89l-3.56-3.56c1.14-1.51,1.72-2.95,1.77-4.34.04-1.38-.45-2.59-1.49-3.62-1.12-1.12-2.41-1.71-3.87-1.77-1.47-.06-3.03.37-4.69,1.29-1.66.92-3.35,2.24-5.06,3.95-1.59,1.59-2.83,3.19-3.73,4.79-.9,1.6-1.35,3.14-1.35,4.63,0,1.49.59,2.82,1.77,4,.8.8,1.75,1.31,2.83,1.5,1.08.2,2.24.05,3.47-.43,1.23-.48,2.46-1.35,3.7-2.59l1.92-1.92v3.04l-6.07-6.07,2.88-2.88,7.78,7.78-11.43,11.43-2.97-2.97.96-.96c.39-.39.72-.72.99-.99.27-.27.62-.58,1.05-.93-1.57.66-3.09.85-4.55.56-1.47-.29-2.8-1.04-4-2.23-1.63-1.63-2.58-3.53-2.85-5.7Z"/>
    <path class="cls-3" d="M132.31,56.34l4.99,4.99-11.34,24.78c.56-.6,1.07-1.13,1.53-1.6l1.6-1.6,14.9-14.9,3.16,3.16-21.68,21.68-4.93-4.93,11.49-25.18c-.54.62-1.02,1.15-1.46,1.58s-.95.95-1.55,1.55l-15.27,15.27-3.13-3.13,21.68-21.68Z"/>
    <path class="cls-3" d="M133.1,98.67c-.3-2.18.08-4.44,1.15-6.78,1.06-2.34,2.73-4.65,5-6.92,2.29-2.29,4.61-3.97,6.96-5.03,2.34-1.06,4.6-1.45,6.77-1.16s4.12,1.3,5.85,3.04c1.71,1.71,2.72,3.65,3.02,5.81s-.09,4.42-1.18,6.78c-1.08,2.37-2.76,4.68-5.03,6.96-2.29,2.29-4.61,3.96-6.94,5.02-2.33,1.05-4.59,1.43-6.77,1.13-2.18-.3-4.12-1.29-5.81-2.99-1.71-1.71-2.72-3.66-3.02-5.84ZM142.5,103.05c1.38,0,2.89-.44,4.52-1.33,1.63-.89,3.32-2.2,5.05-3.93,1.75-1.75,3.08-3.44,3.98-5.06.9-1.62,1.34-3.12,1.33-4.49-.01-1.37-.5-2.54-1.47-3.52s-2.2-1.52-3.56-1.52-2.86.45-4.49,1.36c-1.63.91-3.31,2.23-5.05,3.96s-3.03,3.39-3.95,5.03c-.92,1.64-1.37,3.15-1.35,4.54.02,1.38.52,2.56,1.49,3.53.95.95,2.12,1.42,3.5,1.42Z"/>
    <path class="cls-3" d="M169.48,93.51l8.49,8.49c2.11,2.11,3.28,4.28,3.52,6.52.24,2.24-.54,4.26-2.34,6.06-1.32,1.32-2.85,2.05-4.57,2.18s-3.31-.19-4.75-.97c.95,1.32,1.31,2.74,1.07,4.26-.24,1.52-1.05,2.97-2.43,4.35l-5.73,5.73-3.41-3.41,5.14-5.14c1.49-1.49,2.21-2.84,2.18-4.04-.03-1.21-.79-2.55-2.28-4.04l-4.03-4.03-9.14,9.14-3.41-3.41,21.68-21.68ZM170.22,112.75c.87.35,1.71.43,2.54.25.83-.19,1.61-.65,2.35-1.39,1.09-1.1,1.57-2.28,1.44-3.55-.13-1.27-.86-2.56-2.18-3.89l-4.37-4.37-6.75,6.75,4.37,4.37c.87.87,1.73,1.48,2.6,1.83Z"/>
    <path class="cls-3" d="M193.27,117.3l4.37,4.37-14.96,28.4-3.65-3.65,11.46-20.63c.14-.27.25-.46.33-.57s.19-.31.36-.61c.39-.68.88-1.47,1.46-2.38-.39.27-.79.52-1.18.74-.39.23-.79.46-1.18.68l-1.24.68-20.66,11.43-3.47-3.47,28.38-14.99ZM177.75,127l10.19,10.19-2.88,2.88-10.19-10.19,2.88-2.88Z"/>
    <path class="cls-3" d="M206.65,130.69l4.99,4.99-11.34,24.78c.56-.6,1.07-1.13,1.53-1.6l1.6-1.6,14.9-14.9,3.16,3.16-21.68,21.68-4.93-4.93,11.49-25.18c-.54.62-1.02,1.15-1.46,1.58s-.95.95-1.55,1.55l-15.27,15.27-3.13-3.13,21.68-21.68Z"/>
    <path class="cls-3" d="M228.05,157.85l-6.94-6.94,2.88-2.88,17.29,17.29-2.88,2.88-6.94-6.94-18.8,18.8-3.41-3.41,18.8-18.8Z"/>
  </g>
  <g class="cls-1">
    <path class="cls-3" d="M42.37,125.04l-26.55-26.55,7.89-7.89,59.19-11.35,11.34,11.35-35.51,35.51,10.52,10.52-7.65,7.65-10.52-10.52-14.39,14.39-8.71-8.71,14.39-14.39ZM50.02,117.4l27.29-27.29c-2.08.66-4.19,1.18-6.33,1.56l-33.95,6.66c-1.65.22-3.4.49-5.26.82l18.25,18.25Z"/>
    <path class="cls-3" d="M64.11,171.04c-.85-5.62.12-11.55,2.92-17.8,2.8-6.25,7.32-12.49,13.56-18.74,6.25-6.25,12.52-10.74,18.83-13.48,6.3-2.74,12.29-3.69,17.96-2.84,5.67.85,10.73,3.49,15.17,7.93,4.44,4.44,7.07,9.48,7.89,15.12.82,5.65-.14,11.62-2.88,17.92-2.74,6.3-7.29,12.63-13.65,18.99s-12.47,10.77-18.66,13.56c-6.19,2.8-12.1,3.74-17.72,2.84-5.62-.91-10.7-3.63-15.25-8.18-4.6-4.6-7.33-9.71-8.18-15.33ZM88.9,183.57c3.56.27,7.52-.78,11.88-3.16,4.36-2.38,9.05-6.1,14.1-11.14,7.73-7.73,12.41-14.61,14.06-20.63,1.64-6.03.44-11.07-3.62-15.12-2.8-2.8-5.99-4.32-9.58-4.56-3.59-.25-7.6.86-12.04,3.33-4.44,2.47-9.26,6.3-14.47,11.51-7.51,7.51-12.02,14.26-13.52,20.27-1.51,6-.21,11.05,3.91,15.17,2.63,2.63,5.73,4.08,9.29,4.36Z"/>
    <path class="cls-3" d="M141.02,223.69l-26.55-26.55,7.89-7.89,59.19-11.35,11.34,11.35-35.51,35.51,10.52,10.52-7.65,7.65-10.52-10.52-14.39,14.39-8.71-8.71,14.39-14.39ZM148.67,216.04l27.29-27.29c-2.08.66-4.2,1.18-6.33,1.56l-33.95,6.66c-1.65.22-3.4.49-5.26.82l18.25,18.25Z"/>
  </g>
</svg>