<?xml version="1.0" encoding="UTF-8"?>
<svg id="Layer_1" data-name="Layer 1" xmlns="http://www.w3.org/2000/svg" xmlns:xlink="http://www.w3.org/1999/xlink" viewBox="0 0 1398 344">
  <defs>
    <style>
      .cls-1 {
        filter: url(#drop-shadow-2);
      }

      .cls-2 {
        fill: #fff;
      }
    </style>
    <filter id="drop-shadow-2" x="16" y="38" width="1376" height="230" filterUnits="userSpaceOnUse">
      <feOffset dx="-3" dy="-3"/>
      <feGaussianBlur result="blur" stdDeviation="3"/>
      <feFlood flood-color="#2c72ff" flood-opacity=".8"/>
      <feComposite in2="blur" operator="in"/>
      <feComposite in="SourceGraphic"/>
    </filter>
  </defs>
  <g class="cls-1">
    <path class="cls-2" d="M28.85,55.8h139.09v26.73H28.85v-26.73ZM28.85,229.95h139.09v27.01H28.85v-27.01ZM82.59,55.8h31.61v201.16h-31.61V55.8Z"/>
    <path class="cls-2" d="M230.3,248.34c-11.31-8.81-19.93-21.07-25.86-36.78-5.94-15.71-8.91-33.81-8.91-54.31s3.26-40.18,9.77-56.18c6.51-15.99,15.76-28.35,27.73-37.07,11.97-8.72,26.1-13.08,42.39-13.08,13.03,0,24.47,2.68,34.34,8.05,9.87,5.37,17.67,12.93,23.42,22.7s9.38,21.27,10.92,34.49h-33.05c-1.72-12.26-5.7-21.7-11.93-28.31-6.23-6.61-14.13-9.92-23.71-9.92-10.35,0-19.07,3.26-26.15,9.77-7.09,6.51-12.36,15.76-15.81,27.73-3.45,11.98-5.17,25.91-5.17,41.81,0,14.75,1.63,27.92,4.89,39.51,3.26,11.59,8.33,20.83,15.23,27.73,6.9,6.9,15.81,10.35,26.73,10.35,7.47,0,14.18-2.06,20.12-6.18,5.94-4.12,10.63-10.15,14.08-18.1,3.45-7.95,5.17-17.67,5.17-29.17v-17.82l14.08,14.08h-56.33v-26.73h72.13v106.04h-27.59v-18.1c0-2.49.19-5.55.57-9.2-4.22,10.35-10.4,18.25-18.54,23.71-8.15,5.46-17.77,8.19-28.88,8.19-15.14,0-28.36-4.41-39.66-13.22Z"/>
    <path class="cls-2" d="M374.56,55.8h46.27l62.36,167.54c-.19-5.36-.29-10.2-.29-14.51V55.8h29.31v201.16h-45.69l-63.51-170.13c.38,5.37.57,10.06.57,14.08v156.05h-29.03V55.8Z"/>
    <path class="cls-2" d="M574.58,248.48c-11.5-8.72-20.22-20.98-26.15-36.78-5.94-15.81-8.91-34.24-8.91-55.32s2.97-39.8,8.91-55.61c5.94-15.81,14.61-28.06,26.01-36.78,11.4-8.72,25.15-13.08,41.24-13.08s29.55,4.31,40.95,12.93c11.4,8.62,20.07,20.93,26.01,36.93,5.94,16,8.91,34.54,8.91,55.61s-2.97,39.76-8.91,55.46c-5.94,15.71-14.66,27.92-26.15,36.64s-25.1,13.08-40.81,13.08-29.6-4.36-41.09-13.08ZM638.52,225.21c6.42-6.42,11.35-15.47,14.8-27.16,3.45-11.68,5.17-25.58,5.17-41.67s-1.68-30.27-5.03-41.96c-3.35-11.68-8.24-20.69-14.66-27.01-6.42-6.32-14.13-9.48-23.13-9.48s-17.24,3.16-23.56,9.48-11.16,15.38-14.51,27.16c-3.35,11.78-5.03,25.72-5.03,41.81s1.67,29.79,5.03,41.67c3.35,11.88,8.28,20.98,14.8,27.3,6.51,6.32,14.27,9.48,23.28,9.48s16.43-3.21,22.85-9.63Z"/>
    <path class="cls-2" d="M719.41,55.8h78.74c19.54,0,35.06,4.65,46.55,13.94,11.5,9.29,17.24,22.27,17.24,38.94,0,12.26-3.69,22.7-11.06,31.32-7.38,8.62-16.24,14.47-26.58,17.53,10.53,1.72,18.77,6.66,24.71,14.8,5.94,8.15,8.91,18.63,8.91,31.47v53.17h-31.61v-47.7c0-13.79-2.87-23.42-8.62-28.88-5.75-5.46-15.52-8.19-29.31-8.19h-37.36v84.78h-31.61V55.8ZM812.09,141.58c5.65-2.39,9.96-5.94,12.93-10.63,2.97-4.69,4.46-10.49,4.46-17.39,0-10.15-3.26-17.86-9.77-23.13-6.51-5.27-15.9-7.9-28.16-7.9h-40.52v62.65h40.52c8.05,0,14.89-1.2,20.55-3.59Z"/>
    <path class="cls-2" d="M940.11,55.8h40.52l62.36,201.16h-33.91l-42.53-148.86c-.58-1.91-.96-3.3-1.15-4.17-.19-.86-.58-2.34-1.15-4.45-1.34-4.98-2.78-10.92-4.31-17.82-.58,3.07-1.25,6.04-2.01,8.91-.77,2.87-1.54,5.75-2.3,8.62l-2.59,8.91-42.82,148.86h-32.19l62.07-201.16ZM913.1,172.76h94.55v26.73h-94.55v-26.73Z"/>
    <path class="cls-2" d="M1064.26,55.8h46.27l62.36,167.54c-.19-5.36-.29-10.2-.29-14.51V55.8h29.31v201.16h-45.69l-63.51-170.13c.38,5.37.57,10.06.57,14.08v156.05h-29.02V55.8Z"/>
    <path class="cls-2" d="M1289.56,82.52h-64.37v-26.73h160.36v26.73h-64.37v174.44h-31.61V82.52Z"/>
  </g>
</svg>